%TF.GenerationSoftware,KiCad,Pcbnew,(5.1.10)-1*%
%TF.CreationDate,2021-10-23T23:22:00+01:00*%
%TF.ProjectId,ZMPT101enhanced,5a4d5054-3130-4316-956e-68616e636564,V1.0*%
%TF.SameCoordinates,Original*%
%TF.FileFunction,Copper,L2,Bot*%
%TF.FilePolarity,Positive*%
%FSLAX46Y46*%
G04 Gerber Fmt 4.6, Leading zero omitted, Abs format (unit mm)*
G04 Created by KiCad (PCBNEW (5.1.10)-1) date 2021-10-23 23:22:00*
%MOMM*%
%LPD*%
G01*
G04 APERTURE LIST*
%TA.AperFunction,ComponentPad*%
%ADD10R,1.700000X1.700000*%
%TD*%
%TA.AperFunction,ComponentPad*%
%ADD11O,1.700000X1.700000*%
%TD*%
%TA.AperFunction,ComponentPad*%
%ADD12R,3.000000X3.000000*%
%TD*%
%TA.AperFunction,ComponentPad*%
%ADD13C,3.000000*%
%TD*%
%TA.AperFunction,ComponentPad*%
%ADD14C,1.440000*%
%TD*%
%TA.AperFunction,ComponentPad*%
%ADD15C,1.500000*%
%TD*%
%TA.AperFunction,ViaPad*%
%ADD16C,0.800000*%
%TD*%
%TA.AperFunction,Conductor*%
%ADD17C,0.200000*%
%TD*%
%TA.AperFunction,Conductor*%
%ADD18C,0.300000*%
%TD*%
%TA.AperFunction,Conductor*%
%ADD19C,2.000000*%
%TD*%
%TA.AperFunction,Conductor*%
%ADD20C,0.254000*%
%TD*%
%TA.AperFunction,Conductor*%
%ADD21C,0.100000*%
%TD*%
G04 APERTURE END LIST*
D10*
%TO.P,J1,1*%
%TO.N,+5V*%
X151638000Y-89916000D03*
D11*
%TO.P,J1,2*%
%TO.N,+3V3*%
X151638000Y-92456000D03*
%TO.P,J1,3*%
%TO.N,GND*%
X151638000Y-94996000D03*
%TO.P,J1,4*%
%TO.N,/OUT*%
X151638000Y-97536000D03*
%TD*%
D12*
%TO.P,J2,1*%
%TO.N,Net-(J2-Pad1)*%
X106680000Y-91440000D03*
D13*
%TO.P,J2,2*%
%TO.N,Net-(J2-Pad2)*%
X106680000Y-96520000D03*
%TD*%
D14*
%TO.P,RV1,1*%
%TO.N,Net-(C3-Pad2)*%
X136398000Y-101600000D03*
%TO.P,RV1,2*%
%TO.N,Net-(C2-Pad1)*%
X133858000Y-101600000D03*
%TO.P,RV1,3*%
%TO.N,GND*%
X131318000Y-101600000D03*
%TD*%
D15*
%TO.P,T1,1*%
%TO.N,Net-(J2-Pad2)*%
X125476000Y-89154000D03*
%TO.P,T1,2*%
%TO.N,Net-(R10-Pad2)*%
X112776000Y-89154000D03*
%TO.P,T1,3*%
%TO.N,Net-(C4-Pad1)*%
X112776000Y-99154000D03*
%TO.P,T1,4*%
%TO.N,Net-(R6-Pad1)*%
X125476000Y-99154000D03*
%TD*%
D16*
%TO.N,Net-(C3-Pad2)*%
X137375525Y-93687525D03*
%TO.N,GND*%
X149352000Y-93472000D03*
X142240000Y-90932000D03*
X132588000Y-96012000D03*
X132588000Y-93472000D03*
X135698000Y-97508990D03*
%TD*%
D17*
%TO.N,Net-(C3-Pad2)*%
X136398000Y-94665050D02*
X136398000Y-101600000D01*
X137375525Y-93687525D02*
X136398000Y-94665050D01*
D18*
%TO.N,GND*%
X146812000Y-90932000D02*
X142240000Y-90932000D01*
X149352000Y-93472000D02*
X146812000Y-90932000D01*
X131318000Y-97282000D02*
X132588000Y-96012000D01*
X132588000Y-96012000D02*
X132588000Y-93472000D01*
X135162990Y-98044000D02*
X135698000Y-97508990D01*
X131318000Y-98044000D02*
X135162990Y-98044000D01*
X131318000Y-101600000D02*
X131318000Y-98044000D01*
X131318000Y-98044000D02*
X131318000Y-97282000D01*
D19*
%TO.N,Net-(J2-Pad2)*%
X118110000Y-96520000D02*
X125476000Y-89154000D01*
X106680000Y-96520000D02*
X118110000Y-96520000D01*
%TD*%
D20*
%TO.N,GND*%
X153010001Y-88701105D02*
X152939185Y-88614815D01*
X152842494Y-88535463D01*
X152732180Y-88476498D01*
X152612482Y-88440188D01*
X152488000Y-88427928D01*
X150788000Y-88427928D01*
X150663518Y-88440188D01*
X150543820Y-88476498D01*
X150433506Y-88535463D01*
X150336815Y-88614815D01*
X150257463Y-88711506D01*
X150198498Y-88821820D01*
X150162188Y-88941518D01*
X150149928Y-89066000D01*
X150149928Y-90766000D01*
X150162188Y-90890482D01*
X150198498Y-91010180D01*
X150257463Y-91120494D01*
X150336815Y-91217185D01*
X150433506Y-91296537D01*
X150543820Y-91355502D01*
X150616380Y-91377513D01*
X150484525Y-91509368D01*
X150322010Y-91752589D01*
X150210068Y-92022842D01*
X150153000Y-92309740D01*
X150153000Y-92602260D01*
X150210068Y-92889158D01*
X150322010Y-93159411D01*
X150484525Y-93402632D01*
X150691368Y-93609475D01*
X150873534Y-93731195D01*
X150756645Y-93800822D01*
X150540412Y-93995731D01*
X150366359Y-94229080D01*
X150241175Y-94491901D01*
X150196524Y-94639110D01*
X150317845Y-94869000D01*
X151511000Y-94869000D01*
X151511000Y-94849000D01*
X151765000Y-94849000D01*
X151765000Y-94869000D01*
X151785000Y-94869000D01*
X151785000Y-95123000D01*
X151765000Y-95123000D01*
X151765000Y-95143000D01*
X151511000Y-95143000D01*
X151511000Y-95123000D01*
X150317845Y-95123000D01*
X150196524Y-95352890D01*
X150241175Y-95500099D01*
X150366359Y-95762920D01*
X150540412Y-95996269D01*
X150756645Y-96191178D01*
X150873534Y-96260805D01*
X150691368Y-96382525D01*
X150484525Y-96589368D01*
X150322010Y-96832589D01*
X150210068Y-97102842D01*
X150153000Y-97389740D01*
X150153000Y-97682260D01*
X150210068Y-97969158D01*
X150322010Y-98239411D01*
X150484525Y-98482632D01*
X150691368Y-98689475D01*
X150934589Y-98851990D01*
X151204842Y-98963932D01*
X151491740Y-99021000D01*
X151784260Y-99021000D01*
X152071158Y-98963932D01*
X152341411Y-98851990D01*
X152584632Y-98689475D01*
X152791475Y-98482632D01*
X152953990Y-98239411D01*
X153010000Y-98104190D01*
X153010000Y-103734000D01*
X127635000Y-103734000D01*
X127635000Y-102535560D01*
X130562045Y-102535560D01*
X130623932Y-102771368D01*
X130865790Y-102884266D01*
X131125027Y-102947811D01*
X131391680Y-102959561D01*
X131655501Y-102919063D01*
X131906353Y-102827875D01*
X132012068Y-102771368D01*
X132073955Y-102535560D01*
X131318000Y-101779605D01*
X130562045Y-102535560D01*
X127635000Y-102535560D01*
X127635000Y-101673680D01*
X129958439Y-101673680D01*
X129998937Y-101937501D01*
X130090125Y-102188353D01*
X130146632Y-102294068D01*
X130382440Y-102355955D01*
X131138395Y-101600000D01*
X131497605Y-101600000D01*
X132253560Y-102355955D01*
X132489368Y-102294068D01*
X132589764Y-102078993D01*
X132657215Y-102241833D01*
X132805503Y-102463762D01*
X132994238Y-102652497D01*
X133216167Y-102800785D01*
X133462761Y-102902928D01*
X133724544Y-102955000D01*
X133991456Y-102955000D01*
X134253239Y-102902928D01*
X134499833Y-102800785D01*
X134721762Y-102652497D01*
X134910497Y-102463762D01*
X135058785Y-102241833D01*
X135128000Y-102074734D01*
X135197215Y-102241833D01*
X135345503Y-102463762D01*
X135534238Y-102652497D01*
X135756167Y-102800785D01*
X136002761Y-102902928D01*
X136264544Y-102955000D01*
X136531456Y-102955000D01*
X136793239Y-102902928D01*
X137039833Y-102800785D01*
X137261762Y-102652497D01*
X137450497Y-102463762D01*
X137598785Y-102241833D01*
X137700928Y-101995239D01*
X137753000Y-101733456D01*
X137753000Y-101466544D01*
X137700928Y-101204761D01*
X137598785Y-100958167D01*
X137450497Y-100736238D01*
X137261762Y-100547503D01*
X137133000Y-100461467D01*
X137133000Y-94969496D01*
X137379971Y-94722525D01*
X137477464Y-94722525D01*
X137677423Y-94682751D01*
X137865781Y-94604730D01*
X138035299Y-94491462D01*
X138179462Y-94347299D01*
X138292730Y-94177781D01*
X138370751Y-93989423D01*
X138410525Y-93789464D01*
X138410525Y-93585586D01*
X138370751Y-93385627D01*
X138292730Y-93197269D01*
X138179462Y-93027751D01*
X138035299Y-92883588D01*
X137865781Y-92770320D01*
X137677423Y-92692299D01*
X137477464Y-92652525D01*
X137273586Y-92652525D01*
X137073627Y-92692299D01*
X136885269Y-92770320D01*
X136715751Y-92883588D01*
X136571588Y-93027751D01*
X136458320Y-93197269D01*
X136380299Y-93385627D01*
X136340525Y-93585586D01*
X136340525Y-93683079D01*
X135903808Y-94119796D01*
X135875762Y-94142813D01*
X135783913Y-94254731D01*
X135715663Y-94382418D01*
X135686384Y-94478937D01*
X135673635Y-94520965D01*
X135659444Y-94665050D01*
X135663000Y-94701155D01*
X135663001Y-100461467D01*
X135534238Y-100547503D01*
X135345503Y-100736238D01*
X135197215Y-100958167D01*
X135128000Y-101125266D01*
X135058785Y-100958167D01*
X134910497Y-100736238D01*
X134721762Y-100547503D01*
X134499833Y-100399215D01*
X134253239Y-100297072D01*
X133991456Y-100245000D01*
X133724544Y-100245000D01*
X133462761Y-100297072D01*
X133216167Y-100399215D01*
X132994238Y-100547503D01*
X132805503Y-100736238D01*
X132657215Y-100958167D01*
X132587562Y-101126324D01*
X132545875Y-101011647D01*
X132489368Y-100905932D01*
X132253560Y-100844045D01*
X131497605Y-101600000D01*
X131138395Y-101600000D01*
X130382440Y-100844045D01*
X130146632Y-100905932D01*
X130033734Y-101147790D01*
X129970189Y-101407027D01*
X129958439Y-101673680D01*
X127635000Y-101673680D01*
X127635000Y-100664440D01*
X130562045Y-100664440D01*
X131318000Y-101420395D01*
X132073955Y-100664440D01*
X132012068Y-100428632D01*
X131770210Y-100315734D01*
X131510973Y-100252189D01*
X131244320Y-100240439D01*
X130980499Y-100280937D01*
X130729647Y-100372125D01*
X130623932Y-100428632D01*
X130562045Y-100664440D01*
X127635000Y-100664440D01*
X127635000Y-84734000D01*
X153010001Y-84734000D01*
X153010001Y-88701105D01*
%TA.AperFunction,Conductor*%
D21*
G36*
X153010001Y-88701105D02*
G01*
X152939185Y-88614815D01*
X152842494Y-88535463D01*
X152732180Y-88476498D01*
X152612482Y-88440188D01*
X152488000Y-88427928D01*
X150788000Y-88427928D01*
X150663518Y-88440188D01*
X150543820Y-88476498D01*
X150433506Y-88535463D01*
X150336815Y-88614815D01*
X150257463Y-88711506D01*
X150198498Y-88821820D01*
X150162188Y-88941518D01*
X150149928Y-89066000D01*
X150149928Y-90766000D01*
X150162188Y-90890482D01*
X150198498Y-91010180D01*
X150257463Y-91120494D01*
X150336815Y-91217185D01*
X150433506Y-91296537D01*
X150543820Y-91355502D01*
X150616380Y-91377513D01*
X150484525Y-91509368D01*
X150322010Y-91752589D01*
X150210068Y-92022842D01*
X150153000Y-92309740D01*
X150153000Y-92602260D01*
X150210068Y-92889158D01*
X150322010Y-93159411D01*
X150484525Y-93402632D01*
X150691368Y-93609475D01*
X150873534Y-93731195D01*
X150756645Y-93800822D01*
X150540412Y-93995731D01*
X150366359Y-94229080D01*
X150241175Y-94491901D01*
X150196524Y-94639110D01*
X150317845Y-94869000D01*
X151511000Y-94869000D01*
X151511000Y-94849000D01*
X151765000Y-94849000D01*
X151765000Y-94869000D01*
X151785000Y-94869000D01*
X151785000Y-95123000D01*
X151765000Y-95123000D01*
X151765000Y-95143000D01*
X151511000Y-95143000D01*
X151511000Y-95123000D01*
X150317845Y-95123000D01*
X150196524Y-95352890D01*
X150241175Y-95500099D01*
X150366359Y-95762920D01*
X150540412Y-95996269D01*
X150756645Y-96191178D01*
X150873534Y-96260805D01*
X150691368Y-96382525D01*
X150484525Y-96589368D01*
X150322010Y-96832589D01*
X150210068Y-97102842D01*
X150153000Y-97389740D01*
X150153000Y-97682260D01*
X150210068Y-97969158D01*
X150322010Y-98239411D01*
X150484525Y-98482632D01*
X150691368Y-98689475D01*
X150934589Y-98851990D01*
X151204842Y-98963932D01*
X151491740Y-99021000D01*
X151784260Y-99021000D01*
X152071158Y-98963932D01*
X152341411Y-98851990D01*
X152584632Y-98689475D01*
X152791475Y-98482632D01*
X152953990Y-98239411D01*
X153010000Y-98104190D01*
X153010000Y-103734000D01*
X127635000Y-103734000D01*
X127635000Y-102535560D01*
X130562045Y-102535560D01*
X130623932Y-102771368D01*
X130865790Y-102884266D01*
X131125027Y-102947811D01*
X131391680Y-102959561D01*
X131655501Y-102919063D01*
X131906353Y-102827875D01*
X132012068Y-102771368D01*
X132073955Y-102535560D01*
X131318000Y-101779605D01*
X130562045Y-102535560D01*
X127635000Y-102535560D01*
X127635000Y-101673680D01*
X129958439Y-101673680D01*
X129998937Y-101937501D01*
X130090125Y-102188353D01*
X130146632Y-102294068D01*
X130382440Y-102355955D01*
X131138395Y-101600000D01*
X131497605Y-101600000D01*
X132253560Y-102355955D01*
X132489368Y-102294068D01*
X132589764Y-102078993D01*
X132657215Y-102241833D01*
X132805503Y-102463762D01*
X132994238Y-102652497D01*
X133216167Y-102800785D01*
X133462761Y-102902928D01*
X133724544Y-102955000D01*
X133991456Y-102955000D01*
X134253239Y-102902928D01*
X134499833Y-102800785D01*
X134721762Y-102652497D01*
X134910497Y-102463762D01*
X135058785Y-102241833D01*
X135128000Y-102074734D01*
X135197215Y-102241833D01*
X135345503Y-102463762D01*
X135534238Y-102652497D01*
X135756167Y-102800785D01*
X136002761Y-102902928D01*
X136264544Y-102955000D01*
X136531456Y-102955000D01*
X136793239Y-102902928D01*
X137039833Y-102800785D01*
X137261762Y-102652497D01*
X137450497Y-102463762D01*
X137598785Y-102241833D01*
X137700928Y-101995239D01*
X137753000Y-101733456D01*
X137753000Y-101466544D01*
X137700928Y-101204761D01*
X137598785Y-100958167D01*
X137450497Y-100736238D01*
X137261762Y-100547503D01*
X137133000Y-100461467D01*
X137133000Y-94969496D01*
X137379971Y-94722525D01*
X137477464Y-94722525D01*
X137677423Y-94682751D01*
X137865781Y-94604730D01*
X138035299Y-94491462D01*
X138179462Y-94347299D01*
X138292730Y-94177781D01*
X138370751Y-93989423D01*
X138410525Y-93789464D01*
X138410525Y-93585586D01*
X138370751Y-93385627D01*
X138292730Y-93197269D01*
X138179462Y-93027751D01*
X138035299Y-92883588D01*
X137865781Y-92770320D01*
X137677423Y-92692299D01*
X137477464Y-92652525D01*
X137273586Y-92652525D01*
X137073627Y-92692299D01*
X136885269Y-92770320D01*
X136715751Y-92883588D01*
X136571588Y-93027751D01*
X136458320Y-93197269D01*
X136380299Y-93385627D01*
X136340525Y-93585586D01*
X136340525Y-93683079D01*
X135903808Y-94119796D01*
X135875762Y-94142813D01*
X135783913Y-94254731D01*
X135715663Y-94382418D01*
X135686384Y-94478937D01*
X135673635Y-94520965D01*
X135659444Y-94665050D01*
X135663000Y-94701155D01*
X135663001Y-100461467D01*
X135534238Y-100547503D01*
X135345503Y-100736238D01*
X135197215Y-100958167D01*
X135128000Y-101125266D01*
X135058785Y-100958167D01*
X134910497Y-100736238D01*
X134721762Y-100547503D01*
X134499833Y-100399215D01*
X134253239Y-100297072D01*
X133991456Y-100245000D01*
X133724544Y-100245000D01*
X133462761Y-100297072D01*
X133216167Y-100399215D01*
X132994238Y-100547503D01*
X132805503Y-100736238D01*
X132657215Y-100958167D01*
X132587562Y-101126324D01*
X132545875Y-101011647D01*
X132489368Y-100905932D01*
X132253560Y-100844045D01*
X131497605Y-101600000D01*
X131138395Y-101600000D01*
X130382440Y-100844045D01*
X130146632Y-100905932D01*
X130033734Y-101147790D01*
X129970189Y-101407027D01*
X129958439Y-101673680D01*
X127635000Y-101673680D01*
X127635000Y-100664440D01*
X130562045Y-100664440D01*
X131318000Y-101420395D01*
X132073955Y-100664440D01*
X132012068Y-100428632D01*
X131770210Y-100315734D01*
X131510973Y-100252189D01*
X131244320Y-100240439D01*
X130980499Y-100280937D01*
X130729647Y-100372125D01*
X130623932Y-100428632D01*
X130562045Y-100664440D01*
X127635000Y-100664440D01*
X127635000Y-84734000D01*
X153010001Y-84734000D01*
X153010001Y-88701105D01*
G37*
%TD.AperFunction*%
%TD*%
M02*
