%TF.GenerationSoftware,KiCad,Pcbnew,(5.1.10)-1*%
%TF.CreationDate,2021-10-23T23:22:00+01:00*%
%TF.ProjectId,ZMPT101enhanced,5a4d5054-3130-4316-956e-68616e636564,V1.0*%
%TF.SameCoordinates,Original*%
%TF.FileFunction,Legend,Top*%
%TF.FilePolarity,Positive*%
%FSLAX46Y46*%
G04 Gerber Fmt 4.6, Leading zero omitted, Abs format (unit mm)*
G04 Created by KiCad (PCBNEW (5.1.10)-1) date 2021-10-23 23:22:00*
%MOMM*%
%LPD*%
G01*
G04 APERTURE LIST*
%ADD10C,0.120000*%
%ADD11C,0.100000*%
%ADD12C,0.200000*%
%ADD13C,0.150000*%
%ADD14C,0.254000*%
G04 APERTURE END LIST*
D10*
%TO.C,C1*%
X145902000Y-93571748D02*
X145902000Y-94994252D01*
X147722000Y-93571748D02*
X147722000Y-94994252D01*
%TO.C,C2*%
X144625748Y-99420000D02*
X146048252Y-99420000D01*
X144625748Y-101240000D02*
X146048252Y-101240000D01*
%TO.C,C3*%
X136243748Y-91588000D02*
X137666252Y-91588000D01*
X136243748Y-89768000D02*
X137666252Y-89768000D01*
%TO.C,C4*%
X130401748Y-87482000D02*
X131824252Y-87482000D01*
X130401748Y-89302000D02*
X131824252Y-89302000D01*
%TO.C,C5*%
X144778252Y-87990000D02*
X143355748Y-87990000D01*
X144778252Y-89810000D02*
X143355748Y-89810000D01*
%TO.C,D1*%
X134745000Y-86733000D02*
X138630000Y-86733000D01*
X134745000Y-84463000D02*
X134745000Y-86733000D01*
X138630000Y-84463000D02*
X134745000Y-84463000D01*
%TO.C,J1*%
X150308000Y-88586000D02*
X151638000Y-88586000D01*
X150308000Y-89916000D02*
X150308000Y-88586000D01*
X150308000Y-91186000D02*
X152968000Y-91186000D01*
X152968000Y-91186000D02*
X152968000Y-98866000D01*
X150308000Y-91186000D02*
X150308000Y-98866000D01*
X150308000Y-98866000D02*
X152968000Y-98866000D01*
%TO.C,J2*%
X102870000Y-88900000D02*
X102870000Y-99060000D01*
X110490000Y-88900000D02*
X102870000Y-88900000D01*
X110490000Y-99060000D02*
X110490000Y-88900000D01*
X102870000Y-99060000D02*
X110490000Y-99060000D01*
X104140000Y-99060000D02*
X104140000Y-88900000D01*
%TO.C,R1*%
X144928000Y-95022564D02*
X144928000Y-93568436D01*
X143108000Y-95022564D02*
X143108000Y-93568436D01*
%TO.C,R2*%
X144560936Y-97134000D02*
X146015064Y-97134000D01*
X144560936Y-98954000D02*
X146015064Y-98954000D01*
%TO.C,R3*%
X142388000Y-102642564D02*
X142388000Y-101188436D01*
X140568000Y-102642564D02*
X140568000Y-101188436D01*
%TO.C,R4*%
X130398436Y-95102000D02*
X131852564Y-95102000D01*
X130398436Y-96922000D02*
X131852564Y-96922000D01*
%TO.C,R5*%
X136240436Y-89048000D02*
X137694564Y-89048000D01*
X136240436Y-87228000D02*
X137694564Y-87228000D01*
%TO.C,R6*%
X130398436Y-94382000D02*
X131852564Y-94382000D01*
X130398436Y-92562000D02*
X131852564Y-92562000D01*
%TO.C,R7*%
X130398436Y-91842000D02*
X131852564Y-91842000D01*
X130398436Y-90022000D02*
X131852564Y-90022000D01*
%TO.C,R8*%
X144622436Y-101706000D02*
X146076564Y-101706000D01*
X144622436Y-103526000D02*
X146076564Y-103526000D01*
%TO.C,R9*%
X130398436Y-86762000D02*
X131852564Y-86762000D01*
X130398436Y-84942000D02*
X131852564Y-84942000D01*
%TO.C,R10*%
X107538436Y-86212000D02*
X108992564Y-86212000D01*
X107538436Y-88032000D02*
X108992564Y-88032000D01*
%TO.C,R11*%
X143352436Y-84688000D02*
X144806564Y-84688000D01*
X143352436Y-86508000D02*
X144806564Y-86508000D01*
%TO.C,RV1*%
X138743000Y-99070000D02*
X138743000Y-104140000D01*
X128973000Y-99070000D02*
X128973000Y-104140000D01*
X128973000Y-104140000D02*
X138743000Y-104140000D01*
X128973000Y-99070000D02*
X138743000Y-99070000D01*
D11*
%TO.C,T1*%
X127476000Y-84554000D02*
X127476000Y-103754000D01*
X127476000Y-103754000D02*
X110776000Y-103754000D01*
X110776000Y-103754000D02*
X110776000Y-84554000D01*
X110776000Y-84554000D02*
X127476000Y-84554000D01*
D12*
X125976000Y-83954000D02*
X125976000Y-83954000D01*
X125776000Y-83954000D02*
X125776000Y-83954000D01*
X125776000Y-83954000D02*
G75*
G02*
X125976000Y-83954000I100000J0D01*
G01*
X125976000Y-83954000D02*
G75*
G02*
X125776000Y-83954000I-100000J0D01*
G01*
D10*
%TO.C,U1*%
X138684000Y-92944000D02*
X135234000Y-92944000D01*
X138684000Y-92944000D02*
X140634000Y-92944000D01*
X138684000Y-98064000D02*
X136734000Y-98064000D01*
X138684000Y-98064000D02*
X140634000Y-98064000D01*
%TO.C,C1*%
D13*
X147169142Y-94449666D02*
X147216761Y-94497285D01*
X147264380Y-94640142D01*
X147264380Y-94735380D01*
X147216761Y-94878238D01*
X147121523Y-94973476D01*
X147026285Y-95021095D01*
X146835809Y-95068714D01*
X146692952Y-95068714D01*
X146502476Y-95021095D01*
X146407238Y-94973476D01*
X146312000Y-94878238D01*
X146264380Y-94735380D01*
X146264380Y-94640142D01*
X146312000Y-94497285D01*
X146359619Y-94449666D01*
X147264380Y-93497285D02*
X147264380Y-94068714D01*
X147264380Y-93783000D02*
X146264380Y-93783000D01*
X146407238Y-93878238D01*
X146502476Y-93973476D01*
X146550095Y-94068714D01*
%TO.C,C2*%
X145170333Y-100687142D02*
X145122714Y-100734761D01*
X144979857Y-100782380D01*
X144884619Y-100782380D01*
X144741761Y-100734761D01*
X144646523Y-100639523D01*
X144598904Y-100544285D01*
X144551285Y-100353809D01*
X144551285Y-100210952D01*
X144598904Y-100020476D01*
X144646523Y-99925238D01*
X144741761Y-99830000D01*
X144884619Y-99782380D01*
X144979857Y-99782380D01*
X145122714Y-99830000D01*
X145170333Y-99877619D01*
X145551285Y-99877619D02*
X145598904Y-99830000D01*
X145694142Y-99782380D01*
X145932238Y-99782380D01*
X146027476Y-99830000D01*
X146075095Y-99877619D01*
X146122714Y-99972857D01*
X146122714Y-100068095D01*
X146075095Y-100210952D01*
X145503666Y-100782380D01*
X146122714Y-100782380D01*
%TO.C,C3*%
X136739333Y-91035142D02*
X136691714Y-91082761D01*
X136548857Y-91130380D01*
X136453619Y-91130380D01*
X136310761Y-91082761D01*
X136215523Y-90987523D01*
X136167904Y-90892285D01*
X136120285Y-90701809D01*
X136120285Y-90558952D01*
X136167904Y-90368476D01*
X136215523Y-90273238D01*
X136310761Y-90178000D01*
X136453619Y-90130380D01*
X136548857Y-90130380D01*
X136691714Y-90178000D01*
X136739333Y-90225619D01*
X137072666Y-90130380D02*
X137691714Y-90130380D01*
X137358380Y-90511333D01*
X137501238Y-90511333D01*
X137596476Y-90558952D01*
X137644095Y-90606571D01*
X137691714Y-90701809D01*
X137691714Y-90939904D01*
X137644095Y-91035142D01*
X137596476Y-91082761D01*
X137501238Y-91130380D01*
X137215523Y-91130380D01*
X137120285Y-91082761D01*
X137072666Y-91035142D01*
%TO.C,C4*%
X130946333Y-88749142D02*
X130898714Y-88796761D01*
X130755857Y-88844380D01*
X130660619Y-88844380D01*
X130517761Y-88796761D01*
X130422523Y-88701523D01*
X130374904Y-88606285D01*
X130327285Y-88415809D01*
X130327285Y-88272952D01*
X130374904Y-88082476D01*
X130422523Y-87987238D01*
X130517761Y-87892000D01*
X130660619Y-87844380D01*
X130755857Y-87844380D01*
X130898714Y-87892000D01*
X130946333Y-87939619D01*
X131803476Y-88177714D02*
X131803476Y-88844380D01*
X131565380Y-87796761D02*
X131327285Y-88511047D01*
X131946333Y-88511047D01*
%TO.C,C5*%
X143900333Y-89257142D02*
X143852714Y-89304761D01*
X143709857Y-89352380D01*
X143614619Y-89352380D01*
X143471761Y-89304761D01*
X143376523Y-89209523D01*
X143328904Y-89114285D01*
X143281285Y-88923809D01*
X143281285Y-88780952D01*
X143328904Y-88590476D01*
X143376523Y-88495238D01*
X143471761Y-88400000D01*
X143614619Y-88352380D01*
X143709857Y-88352380D01*
X143852714Y-88400000D01*
X143900333Y-88447619D01*
X144805095Y-88352380D02*
X144328904Y-88352380D01*
X144281285Y-88828571D01*
X144328904Y-88780952D01*
X144424142Y-88733333D01*
X144662238Y-88733333D01*
X144757476Y-88780952D01*
X144805095Y-88828571D01*
X144852714Y-88923809D01*
X144852714Y-89161904D01*
X144805095Y-89257142D01*
X144757476Y-89304761D01*
X144662238Y-89352380D01*
X144424142Y-89352380D01*
X144328904Y-89304761D01*
X144281285Y-89257142D01*
%TO.C,D1*%
X136291904Y-86050380D02*
X136291904Y-85050380D01*
X136530000Y-85050380D01*
X136672857Y-85098000D01*
X136768095Y-85193238D01*
X136815714Y-85288476D01*
X136863333Y-85478952D01*
X136863333Y-85621809D01*
X136815714Y-85812285D01*
X136768095Y-85907523D01*
X136672857Y-86002761D01*
X136530000Y-86050380D01*
X136291904Y-86050380D01*
X137815714Y-86050380D02*
X137244285Y-86050380D01*
X137530000Y-86050380D02*
X137530000Y-85050380D01*
X137434761Y-85193238D01*
X137339523Y-85288476D01*
X137244285Y-85336095D01*
%TO.C,J1*%
X151304666Y-87038380D02*
X151304666Y-87752666D01*
X151257047Y-87895523D01*
X151161809Y-87990761D01*
X151018952Y-88038380D01*
X150923714Y-88038380D01*
X152304666Y-88038380D02*
X151733238Y-88038380D01*
X152018952Y-88038380D02*
X152018952Y-87038380D01*
X151923714Y-87181238D01*
X151828476Y-87276476D01*
X151733238Y-87324095D01*
%TO.C,J2*%
X111212380Y-94313333D02*
X111926666Y-94313333D01*
X112069523Y-94360952D01*
X112164761Y-94456190D01*
X112212380Y-94599047D01*
X112212380Y-94694285D01*
X111307619Y-93884761D02*
X111260000Y-93837142D01*
X111212380Y-93741904D01*
X111212380Y-93503809D01*
X111260000Y-93408571D01*
X111307619Y-93360952D01*
X111402857Y-93313333D01*
X111498095Y-93313333D01*
X111640952Y-93360952D01*
X112212380Y-93932380D01*
X112212380Y-93313333D01*
%TO.C,R1*%
X144470380Y-94462166D02*
X143994190Y-94795500D01*
X144470380Y-95033595D02*
X143470380Y-95033595D01*
X143470380Y-94652642D01*
X143518000Y-94557404D01*
X143565619Y-94509785D01*
X143660857Y-94462166D01*
X143803714Y-94462166D01*
X143898952Y-94509785D01*
X143946571Y-94557404D01*
X143994190Y-94652642D01*
X143994190Y-95033595D01*
X144470380Y-93509785D02*
X144470380Y-94081214D01*
X144470380Y-93795500D02*
X143470380Y-93795500D01*
X143613238Y-93890738D01*
X143708476Y-93985976D01*
X143756095Y-94081214D01*
%TO.C,R2*%
X145121333Y-98496380D02*
X144788000Y-98020190D01*
X144549904Y-98496380D02*
X144549904Y-97496380D01*
X144930857Y-97496380D01*
X145026095Y-97544000D01*
X145073714Y-97591619D01*
X145121333Y-97686857D01*
X145121333Y-97829714D01*
X145073714Y-97924952D01*
X145026095Y-97972571D01*
X144930857Y-98020190D01*
X144549904Y-98020190D01*
X145502285Y-97591619D02*
X145549904Y-97544000D01*
X145645142Y-97496380D01*
X145883238Y-97496380D01*
X145978476Y-97544000D01*
X146026095Y-97591619D01*
X146073714Y-97686857D01*
X146073714Y-97782095D01*
X146026095Y-97924952D01*
X145454666Y-98496380D01*
X146073714Y-98496380D01*
%TO.C,R3*%
X141868880Y-102082166D02*
X141392690Y-102415500D01*
X141868880Y-102653595D02*
X140868880Y-102653595D01*
X140868880Y-102272642D01*
X140916500Y-102177404D01*
X140964119Y-102129785D01*
X141059357Y-102082166D01*
X141202214Y-102082166D01*
X141297452Y-102129785D01*
X141345071Y-102177404D01*
X141392690Y-102272642D01*
X141392690Y-102653595D01*
X140868880Y-101748833D02*
X140868880Y-101129785D01*
X141249833Y-101463119D01*
X141249833Y-101320261D01*
X141297452Y-101225023D01*
X141345071Y-101177404D01*
X141440309Y-101129785D01*
X141678404Y-101129785D01*
X141773642Y-101177404D01*
X141821261Y-101225023D01*
X141868880Y-101320261D01*
X141868880Y-101605976D01*
X141821261Y-101701214D01*
X141773642Y-101748833D01*
%TO.C,R4*%
X130958833Y-96464380D02*
X130625500Y-95988190D01*
X130387404Y-96464380D02*
X130387404Y-95464380D01*
X130768357Y-95464380D01*
X130863595Y-95512000D01*
X130911214Y-95559619D01*
X130958833Y-95654857D01*
X130958833Y-95797714D01*
X130911214Y-95892952D01*
X130863595Y-95940571D01*
X130768357Y-95988190D01*
X130387404Y-95988190D01*
X131815976Y-95797714D02*
X131815976Y-96464380D01*
X131577880Y-95416761D02*
X131339785Y-96131047D01*
X131958833Y-96131047D01*
%TO.C,R5*%
X136800833Y-88590380D02*
X136467500Y-88114190D01*
X136229404Y-88590380D02*
X136229404Y-87590380D01*
X136610357Y-87590380D01*
X136705595Y-87638000D01*
X136753214Y-87685619D01*
X136800833Y-87780857D01*
X136800833Y-87923714D01*
X136753214Y-88018952D01*
X136705595Y-88066571D01*
X136610357Y-88114190D01*
X136229404Y-88114190D01*
X137705595Y-87590380D02*
X137229404Y-87590380D01*
X137181785Y-88066571D01*
X137229404Y-88018952D01*
X137324642Y-87971333D01*
X137562738Y-87971333D01*
X137657976Y-88018952D01*
X137705595Y-88066571D01*
X137753214Y-88161809D01*
X137753214Y-88399904D01*
X137705595Y-88495142D01*
X137657976Y-88542761D01*
X137562738Y-88590380D01*
X137324642Y-88590380D01*
X137229404Y-88542761D01*
X137181785Y-88495142D01*
%TO.C,R6*%
X130958833Y-93924380D02*
X130625500Y-93448190D01*
X130387404Y-93924380D02*
X130387404Y-92924380D01*
X130768357Y-92924380D01*
X130863595Y-92972000D01*
X130911214Y-93019619D01*
X130958833Y-93114857D01*
X130958833Y-93257714D01*
X130911214Y-93352952D01*
X130863595Y-93400571D01*
X130768357Y-93448190D01*
X130387404Y-93448190D01*
X131815976Y-92924380D02*
X131625500Y-92924380D01*
X131530261Y-92972000D01*
X131482642Y-93019619D01*
X131387404Y-93162476D01*
X131339785Y-93352952D01*
X131339785Y-93733904D01*
X131387404Y-93829142D01*
X131435023Y-93876761D01*
X131530261Y-93924380D01*
X131720738Y-93924380D01*
X131815976Y-93876761D01*
X131863595Y-93829142D01*
X131911214Y-93733904D01*
X131911214Y-93495809D01*
X131863595Y-93400571D01*
X131815976Y-93352952D01*
X131720738Y-93305333D01*
X131530261Y-93305333D01*
X131435023Y-93352952D01*
X131387404Y-93400571D01*
X131339785Y-93495809D01*
%TO.C,R7*%
X130958833Y-91384380D02*
X130625500Y-90908190D01*
X130387404Y-91384380D02*
X130387404Y-90384380D01*
X130768357Y-90384380D01*
X130863595Y-90432000D01*
X130911214Y-90479619D01*
X130958833Y-90574857D01*
X130958833Y-90717714D01*
X130911214Y-90812952D01*
X130863595Y-90860571D01*
X130768357Y-90908190D01*
X130387404Y-90908190D01*
X131292166Y-90384380D02*
X131958833Y-90384380D01*
X131530261Y-91384380D01*
%TO.C,R8*%
X145182833Y-103068380D02*
X144849500Y-102592190D01*
X144611404Y-103068380D02*
X144611404Y-102068380D01*
X144992357Y-102068380D01*
X145087595Y-102116000D01*
X145135214Y-102163619D01*
X145182833Y-102258857D01*
X145182833Y-102401714D01*
X145135214Y-102496952D01*
X145087595Y-102544571D01*
X144992357Y-102592190D01*
X144611404Y-102592190D01*
X145754261Y-102496952D02*
X145659023Y-102449333D01*
X145611404Y-102401714D01*
X145563785Y-102306476D01*
X145563785Y-102258857D01*
X145611404Y-102163619D01*
X145659023Y-102116000D01*
X145754261Y-102068380D01*
X145944738Y-102068380D01*
X146039976Y-102116000D01*
X146087595Y-102163619D01*
X146135214Y-102258857D01*
X146135214Y-102306476D01*
X146087595Y-102401714D01*
X146039976Y-102449333D01*
X145944738Y-102496952D01*
X145754261Y-102496952D01*
X145659023Y-102544571D01*
X145611404Y-102592190D01*
X145563785Y-102687428D01*
X145563785Y-102877904D01*
X145611404Y-102973142D01*
X145659023Y-103020761D01*
X145754261Y-103068380D01*
X145944738Y-103068380D01*
X146039976Y-103020761D01*
X146087595Y-102973142D01*
X146135214Y-102877904D01*
X146135214Y-102687428D01*
X146087595Y-102592190D01*
X146039976Y-102544571D01*
X145944738Y-102496952D01*
%TO.C,R9*%
X130958833Y-86304380D02*
X130625500Y-85828190D01*
X130387404Y-86304380D02*
X130387404Y-85304380D01*
X130768357Y-85304380D01*
X130863595Y-85352000D01*
X130911214Y-85399619D01*
X130958833Y-85494857D01*
X130958833Y-85637714D01*
X130911214Y-85732952D01*
X130863595Y-85780571D01*
X130768357Y-85828190D01*
X130387404Y-85828190D01*
X131435023Y-86304380D02*
X131625500Y-86304380D01*
X131720738Y-86256761D01*
X131768357Y-86209142D01*
X131863595Y-86066285D01*
X131911214Y-85875809D01*
X131911214Y-85494857D01*
X131863595Y-85399619D01*
X131815976Y-85352000D01*
X131720738Y-85304380D01*
X131530261Y-85304380D01*
X131435023Y-85352000D01*
X131387404Y-85399619D01*
X131339785Y-85494857D01*
X131339785Y-85732952D01*
X131387404Y-85828190D01*
X131435023Y-85875809D01*
X131530261Y-85923428D01*
X131720738Y-85923428D01*
X131815976Y-85875809D01*
X131863595Y-85828190D01*
X131911214Y-85732952D01*
%TO.C,R10*%
X107622642Y-85754380D02*
X107289309Y-85278190D01*
X107051214Y-85754380D02*
X107051214Y-84754380D01*
X107432166Y-84754380D01*
X107527404Y-84802000D01*
X107575023Y-84849619D01*
X107622642Y-84944857D01*
X107622642Y-85087714D01*
X107575023Y-85182952D01*
X107527404Y-85230571D01*
X107432166Y-85278190D01*
X107051214Y-85278190D01*
X108575023Y-85754380D02*
X108003595Y-85754380D01*
X108289309Y-85754380D02*
X108289309Y-84754380D01*
X108194071Y-84897238D01*
X108098833Y-84992476D01*
X108003595Y-85040095D01*
X109194071Y-84754380D02*
X109289309Y-84754380D01*
X109384547Y-84802000D01*
X109432166Y-84849619D01*
X109479785Y-84944857D01*
X109527404Y-85135333D01*
X109527404Y-85373428D01*
X109479785Y-85563904D01*
X109432166Y-85659142D01*
X109384547Y-85706761D01*
X109289309Y-85754380D01*
X109194071Y-85754380D01*
X109098833Y-85706761D01*
X109051214Y-85659142D01*
X109003595Y-85563904D01*
X108955976Y-85373428D01*
X108955976Y-85135333D01*
X109003595Y-84944857D01*
X109051214Y-84849619D01*
X109098833Y-84802000D01*
X109194071Y-84754380D01*
%TO.C,R11*%
X143436642Y-86050380D02*
X143103309Y-85574190D01*
X142865214Y-86050380D02*
X142865214Y-85050380D01*
X143246166Y-85050380D01*
X143341404Y-85098000D01*
X143389023Y-85145619D01*
X143436642Y-85240857D01*
X143436642Y-85383714D01*
X143389023Y-85478952D01*
X143341404Y-85526571D01*
X143246166Y-85574190D01*
X142865214Y-85574190D01*
X144389023Y-86050380D02*
X143817595Y-86050380D01*
X144103309Y-86050380D02*
X144103309Y-85050380D01*
X144008071Y-85193238D01*
X143912833Y-85288476D01*
X143817595Y-85336095D01*
X145341404Y-86050380D02*
X144769976Y-86050380D01*
X145055690Y-86050380D02*
X145055690Y-85050380D01*
X144960452Y-85193238D01*
X144865214Y-85288476D01*
X144769976Y-85336095D01*
%TO.C,RV1*%
X133262761Y-100528380D02*
X132929428Y-100052190D01*
X132691333Y-100528380D02*
X132691333Y-99528380D01*
X133072285Y-99528380D01*
X133167523Y-99576000D01*
X133215142Y-99623619D01*
X133262761Y-99718857D01*
X133262761Y-99861714D01*
X133215142Y-99956952D01*
X133167523Y-100004571D01*
X133072285Y-100052190D01*
X132691333Y-100052190D01*
X133548476Y-99528380D02*
X133881809Y-100528380D01*
X134215142Y-99528380D01*
X135072285Y-100528380D02*
X134500857Y-100528380D01*
X134786571Y-100528380D02*
X134786571Y-99528380D01*
X134691333Y-99671238D01*
X134596095Y-99766476D01*
X134500857Y-99814095D01*
%TO.C,T1*%
D14*
X118430523Y-94771619D02*
X118430523Y-94045904D01*
X119700523Y-94408761D02*
X118430523Y-94408761D01*
X119700523Y-92957333D02*
X119700523Y-93683047D01*
X119700523Y-93320190D02*
X118430523Y-93320190D01*
X118611952Y-93441142D01*
X118732904Y-93562095D01*
X118793380Y-93683047D01*
%TO.C,U1*%
D13*
X137922095Y-94956380D02*
X137922095Y-95765904D01*
X137969714Y-95861142D01*
X138017333Y-95908761D01*
X138112571Y-95956380D01*
X138303047Y-95956380D01*
X138398285Y-95908761D01*
X138445904Y-95861142D01*
X138493523Y-95765904D01*
X138493523Y-94956380D01*
X139493523Y-95956380D02*
X138922095Y-95956380D01*
X139207809Y-95956380D02*
X139207809Y-94956380D01*
X139112571Y-95099238D01*
X139017333Y-95194476D01*
X138922095Y-95242095D01*
%TD*%
M02*
