<?xml version="1.0" standalone="no"?>
 <!DOCTYPE svg PUBLIC "-//W3C//DTD SVG 1.1//EN" 
 "http://www.w3.org/Graphics/SVG/1.1/DTD/svg11.dtd"> 
<svg
  xmlns:svg="http://www.w3.org/2000/svg"
  xmlns="http://www.w3.org/2000/svg"
  xmlns:xlink="http://www.w3.org/1999/xlink"
  version="1.1"
  width="29.700220cm" height="21.000720cm" viewBox="0 0 116930 82680">
<title>SVG Picture created as ZMPT101enhanced-F_SilkS.svg date 2021/10/29 19:46:46 </title>
  <desc>Picture generated by PCBNEW </desc>
<g style="fill:#000000; fill-opacity:1;stroke:#000000; stroke-opacity:1;
stroke-linecap:round; stroke-linejoin:round;"
 transform="translate(0 0) scale(1 1)">
</g>
<g style="fill:#000000; fill-opacity:0.0; 
stroke:#000000; stroke-width:-0.000393701; stroke-opacity:1; 
stroke-linecap:round; stroke-linejoin:round;">
</g>
<g style="fill:#000000; fill-opacity:0.0; 
stroke:#000000; stroke-width:39.3701; stroke-opacity:1; 
stroke-linecap:round; stroke-linejoin:round;">
</g>
<g style="fill:#000000; fill-opacity:0.0; 
stroke:#000000; stroke-width:59.0551; stroke-opacity:1; 
stroke-linecap:round; stroke-linejoin:round;">
<rect x="69685.9" y="65357.2" width="42519.7" height="12598.4" rx="0" />
</g>
<g style="fill:#000000; fill-opacity:0.0; 
stroke:#000000; stroke-width:39.3701; stroke-opacity:1; 
stroke-linecap:round; stroke-linejoin:round;">
</g>
<g style="fill:#000000; fill-opacity:0.0; 
stroke:#000000; stroke-width:59.0551; stroke-opacity:1; 
stroke-linecap:round; stroke-linejoin:round;">
<rect x="3937.01" y="3937.01" width="109056" height="74806" rx="0" />
</g>
<g style="fill:#000000; fill-opacity:0.0; 
stroke:#000000; stroke-width:39.3701; stroke-opacity:1; 
stroke-linecap:round; stroke-linejoin:round;">
</g>
<g style="fill:#000000; fill-opacity:0.0; 
stroke:#000000; stroke-width:59.0551; stroke-opacity:1; 
stroke-linecap:round; stroke-linejoin:round;">
<rect x="4724.41" y="4724.41" width="107481" height="73231.2" rx="0" />
</g>
<g style="fill:#000000; fill-opacity:0.0; 
stroke:#000000; stroke-width:39.3701; stroke-opacity:1; 
stroke-linecap:round; stroke-linejoin:round;">
</g>
<g style="fill:#000000; fill-opacity:0.0; 
stroke:#000000; stroke-width:59.0551; stroke-opacity:1; 
stroke-linecap:round; stroke-linejoin:round;">
<path d="M23622 4724
L23622 3937
" />
</g>
<g style="fill:#000000; fill-opacity:0.0; 
stroke:#000000; stroke-width:39.3701; stroke-opacity:1; 
stroke-linecap:round; stroke-linejoin:round;">
</g>
<g style="fill:#000000; fill-opacity:0.0; 
stroke:#000000; stroke-width:59.0551; stroke-opacity:1; 
stroke-linecap:round; stroke-linejoin:round;">
<path d="M43307 4724
L43307 3937
" />
</g>
<g style="fill:#000000; fill-opacity:0.0; 
stroke:#000000; stroke-width:39.3701; stroke-opacity:1; 
stroke-linecap:round; stroke-linejoin:round;">
</g>
<g style="fill:#000000; fill-opacity:0.0; 
stroke:#000000; stroke-width:59.0551; stroke-opacity:1; 
stroke-linecap:round; stroke-linejoin:round;">
<path d="M62992 4724
L62992 3937
" />
</g>
<g style="fill:#000000; fill-opacity:0.0; 
stroke:#000000; stroke-width:39.3701; stroke-opacity:1; 
stroke-linecap:round; stroke-linejoin:round;">
</g>
<g style="fill:#000000; fill-opacity:0.0; 
stroke:#000000; stroke-width:59.0551; stroke-opacity:1; 
stroke-linecap:round; stroke-linejoin:round;">
<path d="M82677 4724
L82677 3937
" />
</g>
<g style="fill:#000000; fill-opacity:0.0; 
stroke:#000000; stroke-width:39.3701; stroke-opacity:1; 
stroke-linecap:round; stroke-linejoin:round;">
</g>
<g style="fill:#000000; fill-opacity:0.0; 
stroke:#000000; stroke-width:59.0551; stroke-opacity:1; 
stroke-linecap:round; stroke-linejoin:round;">
<path d="M102362 4724
L102362 3937
" />
</g>
<g style="fill:#000000; fill-opacity:0.0; 
stroke:#000000; stroke-width:39.3701; stroke-opacity:1; 
stroke-linecap:round; stroke-linejoin:round;">
</g>
<g style="fill:#000000; fill-opacity:0.0; 
stroke:#000000; stroke-width:59.0551; stroke-opacity:1; 
stroke-linecap:round; stroke-linejoin:round;">
<text x="13779.5" y="4586.61"
textLength="564.211" font-size="682.415" lengthAdjust="spacingAndGlyphs"
text-anchor="start" opacity="0">1</text>
<path d="M14199 4562
L13906 4562
" />
<path d="M14052 4562
L14052 4050
L14004 4123
L13955 4172
L13906 4196
" />
</g>
<g style="fill:#000000; fill-opacity:0.0; 
stroke:#000000; stroke-width:39.3701; stroke-opacity:1; 
stroke-linecap:round; stroke-linejoin:round;">
</g>
<g style="fill:#000000; fill-opacity:0.0; 
stroke:#000000; stroke-width:59.0551; stroke-opacity:1; 
stroke-linecap:round; stroke-linejoin:round;">
<text x="33464.6" y="4586.61"
textLength="546.494" font-size="682.415" lengthAdjust="spacingAndGlyphs"
text-anchor="start" opacity="0">2</text>
<path d="M33591 4099
L33615 4074
L33664 4050
L33786 4050
L33835 4074
L33859 4099
L33884 4147
L33884 4196
L33859 4269
L33567 4562
L33884 4562
" />
</g>
<g style="fill:#000000; fill-opacity:0.0; 
stroke:#000000; stroke-width:39.3701; stroke-opacity:1; 
stroke-linecap:round; stroke-linejoin:round;">
</g>
<g style="fill:#000000; fill-opacity:0.0; 
stroke:#000000; stroke-width:59.0551; stroke-opacity:1; 
stroke-linecap:round; stroke-linejoin:round;">
<text x="53149.6" y="4586.61"
textLength="546.494" font-size="682.415" lengthAdjust="spacingAndGlyphs"
text-anchor="start" opacity="0">3</text>
<path d="M53252 4050
L53569 4050
L53398 4245
L53471 4245
L53520 4269
L53544 4294
L53569 4342
L53569 4464
L53544 4513
L53520 4537
L53471 4562
L53325 4562
L53276 4537
L53252 4513
" />
</g>
<g style="fill:#000000; fill-opacity:0.0; 
stroke:#000000; stroke-width:39.3701; stroke-opacity:1; 
stroke-linecap:round; stroke-linejoin:round;">
</g>
<g style="fill:#000000; fill-opacity:0.0; 
stroke:#000000; stroke-width:59.0551; stroke-opacity:1; 
stroke-linecap:round; stroke-linejoin:round;">
<text x="72834.6" y="4586.61"
textLength="546.494" font-size="682.415" lengthAdjust="spacingAndGlyphs"
text-anchor="start" opacity="0">4</text>
<path d="M73205 4221
L73205 4562
" />
<path d="M73083 4026
L72961 4391
L73278 4391
" />
</g>
<g style="fill:#000000; fill-opacity:0.0; 
stroke:#000000; stroke-width:39.3701; stroke-opacity:1; 
stroke-linecap:round; stroke-linejoin:round;">
</g>
<g style="fill:#000000; fill-opacity:0.0; 
stroke:#000000; stroke-width:59.0551; stroke-opacity:1; 
stroke-linecap:round; stroke-linejoin:round;">
<text x="92519.7" y="4586.61"
textLength="546.494" font-size="682.415" lengthAdjust="spacingAndGlyphs"
text-anchor="start" opacity="0">5</text>
<path d="M92914 4050
L92671 4050
L92646 4294
L92671 4269
L92719 4245
L92841 4245
L92890 4269
L92914 4294
L92939 4342
L92939 4464
L92914 4513
L92890 4537
L92841 4562
L92719 4562
L92671 4537
L92646 4513
" />
</g>
<g style="fill:#000000; fill-opacity:0.0; 
stroke:#000000; stroke-width:39.3701; stroke-opacity:1; 
stroke-linecap:round; stroke-linejoin:round;">
</g>
<g style="fill:#000000; fill-opacity:0.0; 
stroke:#000000; stroke-width:59.0551; stroke-opacity:1; 
stroke-linecap:round; stroke-linejoin:round;">
<text x="112205" y="4586.61"
textLength="546.494" font-size="682.415" lengthAdjust="spacingAndGlyphs"
text-anchor="start" opacity="0">6</text>
<path d="M112575 4050
L112477 4050
L112429 4074
L112404 4099
L112356 4172
L112331 4269
L112331 4464
L112356 4513
L112380 4537
L112429 4562
L112526 4562
L112575 4537
L112599 4513
L112624 4464
L112624 4342
L112599 4294
L112575 4269
L112526 4245
L112429 4245
L112380 4269
L112356 4294
L112331 4342
" />
</g>
<g style="fill:#000000; fill-opacity:0.0; 
stroke:#000000; stroke-width:39.3701; stroke-opacity:1; 
stroke-linecap:round; stroke-linejoin:round;">
</g>
<g style="fill:#000000; fill-opacity:0.0; 
stroke:#000000; stroke-width:59.0551; stroke-opacity:1; 
stroke-linecap:round; stroke-linejoin:round;">
<path d="M23622 77955
L23622 78742
" />
</g>
<g style="fill:#000000; fill-opacity:0.0; 
stroke:#000000; stroke-width:39.3701; stroke-opacity:1; 
stroke-linecap:round; stroke-linejoin:round;">
</g>
<g style="fill:#000000; fill-opacity:0.0; 
stroke:#000000; stroke-width:59.0551; stroke-opacity:1; 
stroke-linecap:round; stroke-linejoin:round;">
<path d="M43307 77955
L43307 78742
" />
</g>
<g style="fill:#000000; fill-opacity:0.0; 
stroke:#000000; stroke-width:39.3701; stroke-opacity:1; 
stroke-linecap:round; stroke-linejoin:round;">
</g>
<g style="fill:#000000; fill-opacity:0.0; 
stroke:#000000; stroke-width:59.0551; stroke-opacity:1; 
stroke-linecap:round; stroke-linejoin:round;">
<path d="M62992 77955
L62992 78742
" />
</g>
<g style="fill:#000000; fill-opacity:0.0; 
stroke:#000000; stroke-width:39.3701; stroke-opacity:1; 
stroke-linecap:round; stroke-linejoin:round;">
</g>
<g style="fill:#000000; fill-opacity:0.0; 
stroke:#000000; stroke-width:59.0551; stroke-opacity:1; 
stroke-linecap:round; stroke-linejoin:round;">
<path d="M82677 77955
L82677 78742
" />
</g>
<g style="fill:#000000; fill-opacity:0.0; 
stroke:#000000; stroke-width:39.3701; stroke-opacity:1; 
stroke-linecap:round; stroke-linejoin:round;">
</g>
<g style="fill:#000000; fill-opacity:0.0; 
stroke:#000000; stroke-width:59.0551; stroke-opacity:1; 
stroke-linecap:round; stroke-linejoin:round;">
<path d="M102362 77955
L102362 78742
" />
</g>
<g style="fill:#000000; fill-opacity:0.0; 
stroke:#000000; stroke-width:39.3701; stroke-opacity:1; 
stroke-linecap:round; stroke-linejoin:round;">
</g>
<g style="fill:#000000; fill-opacity:0.0; 
stroke:#000000; stroke-width:59.0551; stroke-opacity:1; 
stroke-linecap:round; stroke-linejoin:round;">
<text x="13779.5" y="78605.2"
textLength="546.494" font-size="682.415" lengthAdjust="spacingAndGlyphs"
text-anchor="start" opacity="0">1</text>
<path d="M14199 78580
L13906 78580
" />
<path d="M14052 78580
L14052 78069
L14004 78142
L13955 78190
L13906 78215
" />
</g>
<g style="fill:#000000; fill-opacity:0.0; 
stroke:#000000; stroke-width:39.3701; stroke-opacity:1; 
stroke-linecap:round; stroke-linejoin:round;">
</g>
<g style="fill:#000000; fill-opacity:0.0; 
stroke:#000000; stroke-width:59.0551; stroke-opacity:1; 
stroke-linecap:round; stroke-linejoin:round;">
<text x="33464.6" y="78605.2"
textLength="546.494" font-size="682.415" lengthAdjust="spacingAndGlyphs"
text-anchor="start" opacity="0">2</text>
<path d="M33591 78117
L33615 78093
L33664 78069
L33786 78069
L33835 78093
L33859 78117
L33884 78166
L33884 78215
L33859 78288
L33567 78580
L33884 78580
" />
</g>
<g style="fill:#000000; fill-opacity:0.0; 
stroke:#000000; stroke-width:39.3701; stroke-opacity:1; 
stroke-linecap:round; stroke-linejoin:round;">
</g>
<g style="fill:#000000; fill-opacity:0.0; 
stroke:#000000; stroke-width:59.0551; stroke-opacity:1; 
stroke-linecap:round; stroke-linejoin:round;">
<text x="53149.6" y="78605.2"
textLength="546.494" font-size="682.415" lengthAdjust="spacingAndGlyphs"
text-anchor="start" opacity="0">3</text>
<path d="M53252 78069
L53569 78069
L53398 78263
L53471 78263
L53520 78288
L53544 78312
L53569 78361
L53569 78483
L53544 78532
L53520 78556
L53471 78580
L53325 78580
L53276 78556
L53252 78532
" />
</g>
<g style="fill:#000000; fill-opacity:0.0; 
stroke:#000000; stroke-width:39.3701; stroke-opacity:1; 
stroke-linecap:round; stroke-linejoin:round;">
</g>
<g style="fill:#000000; fill-opacity:0.0; 
stroke:#000000; stroke-width:59.0551; stroke-opacity:1; 
stroke-linecap:round; stroke-linejoin:round;">
<text x="72834.6" y="78605.2"
textLength="546.494" font-size="682.415" lengthAdjust="spacingAndGlyphs"
text-anchor="start" opacity="0">4</text>
<path d="M73205 78239
L73205 78580
" />
<path d="M73083 78044
L72961 78410
L73278 78410
" />
</g>
<g style="fill:#000000; fill-opacity:0.0; 
stroke:#000000; stroke-width:39.3701; stroke-opacity:1; 
stroke-linecap:round; stroke-linejoin:round;">
</g>
<g style="fill:#000000; fill-opacity:0.0; 
stroke:#000000; stroke-width:59.0551; stroke-opacity:1; 
stroke-linecap:round; stroke-linejoin:round;">
<text x="92519.7" y="78605.2"
textLength="546.494" font-size="682.415" lengthAdjust="spacingAndGlyphs"
text-anchor="start" opacity="0">5</text>
<path d="M92914 78069
L92671 78069
L92646 78312
L92671 78288
L92719 78263
L92841 78263
L92890 78288
L92914 78312
L92939 78361
L92939 78483
L92914 78532
L92890 78556
L92841 78580
L92719 78580
L92671 78556
L92646 78532
" />
</g>
<g style="fill:#000000; fill-opacity:0.0; 
stroke:#000000; stroke-width:39.3701; stroke-opacity:1; 
stroke-linecap:round; stroke-linejoin:round;">
</g>
<g style="fill:#000000; fill-opacity:0.0; 
stroke:#000000; stroke-width:59.0551; stroke-opacity:1; 
stroke-linecap:round; stroke-linejoin:round;">
<text x="112205" y="78605.2"
textLength="546.494" font-size="682.415" lengthAdjust="spacingAndGlyphs"
text-anchor="start" opacity="0">6</text>
<path d="M112575 78069
L112477 78069
L112429 78093
L112404 78117
L112356 78190
L112331 78288
L112331 78483
L112356 78532
L112380 78556
L112429 78580
L112526 78580
L112575 78556
L112599 78532
L112624 78483
L112624 78361
L112599 78312
L112575 78288
L112526 78263
L112429 78263
L112380 78288
L112356 78312
L112331 78361
" />
</g>
<g style="fill:#000000; fill-opacity:0.0; 
stroke:#000000; stroke-width:39.3701; stroke-opacity:1; 
stroke-linecap:round; stroke-linejoin:round;">
</g>
<g style="fill:#000000; fill-opacity:0.0; 
stroke:#000000; stroke-width:59.0551; stroke-opacity:1; 
stroke-linecap:round; stroke-linejoin:round;">
<path d="M3937 23622
L4724 23622
" />
</g>
<g style="fill:#000000; fill-opacity:0.0; 
stroke:#000000; stroke-width:39.3701; stroke-opacity:1; 
stroke-linecap:round; stroke-linejoin:round;">
</g>
<g style="fill:#000000; fill-opacity:0.0; 
stroke:#000000; stroke-width:59.0551; stroke-opacity:1; 
stroke-linecap:round; stroke-linejoin:round;">
<path d="M3937 43307
L4724 43307
" />
</g>
<g style="fill:#000000; fill-opacity:0.0; 
stroke:#000000; stroke-width:39.3701; stroke-opacity:1; 
stroke-linecap:round; stroke-linejoin:round;">
</g>
<g style="fill:#000000; fill-opacity:0.0; 
stroke:#000000; stroke-width:59.0551; stroke-opacity:1; 
stroke-linecap:round; stroke-linejoin:round;">
<path d="M3937 62992
L4724 62992
" />
</g>
<g style="fill:#000000; fill-opacity:0.0; 
stroke:#000000; stroke-width:39.3701; stroke-opacity:1; 
stroke-linecap:round; stroke-linejoin:round;">
</g>
<g style="fill:#000000; fill-opacity:0.0; 
stroke:#000000; stroke-width:59.0551; stroke-opacity:1; 
stroke-linecap:round; stroke-linejoin:round;">
<text x="4330.71" y="14035.4"
textLength="497.75" font-size="682.415" lengthAdjust="spacingAndGlyphs"
text-anchor="middle" opacity="0">A</text>
<path d="M4208 13864
L4452 13864
" />
<path d="M4160 14011
L4330 13499
L4501 14011
" />
</g>
<g style="fill:#000000; fill-opacity:0.0; 
stroke:#000000; stroke-width:39.3701; stroke-opacity:1; 
stroke-linecap:round; stroke-linejoin:round;">
</g>
<g style="fill:#000000; fill-opacity:0.0; 
stroke:#000000; stroke-width:59.0551; stroke-opacity:1; 
stroke-linecap:round; stroke-linejoin:round;">
<text x="4330.71" y="33720.5"
textLength="570.866" font-size="682.415" lengthAdjust="spacingAndGlyphs"
text-anchor="middle" opacity="0">B</text>
<path d="M4367 33428
L4440 33452
L4464 33476
L4489 33525
L4489 33598
L4464 33647
L4440 33671
L4391 33696
L4196 33696
L4196 33184
L4367 33184
L4416 33208
L4440 33233
L4464 33281
L4464 33330
L4440 33379
L4416 33403
L4367 33428
L4196 33428
" />
</g>
<g style="fill:#000000; fill-opacity:0.0; 
stroke:#000000; stroke-width:39.3701; stroke-opacity:1; 
stroke-linecap:round; stroke-linejoin:round;">
</g>
<g style="fill:#000000; fill-opacity:0.0; 
stroke:#000000; stroke-width:59.0551; stroke-opacity:1; 
stroke-linecap:round; stroke-linejoin:round;">
<text x="4330.71" y="53405.5"
textLength="570.866" font-size="682.415" lengthAdjust="spacingAndGlyphs"
text-anchor="middle" opacity="0">C</text>
<path d="M4489 53332
L4464 53356
L4391 53381
L4342 53381
L4269 53356
L4221 53308
L4196 53259
L4172 53161
L4172 53088
L4196 52991
L4221 52942
L4269 52893
L4342 52869
L4391 52869
L4464 52893
L4489 52918
" />
</g>
<g style="fill:#000000; fill-opacity:0.0; 
stroke:#000000; stroke-width:39.3701; stroke-opacity:1; 
stroke-linecap:round; stroke-linejoin:round;">
</g>
<g style="fill:#000000; fill-opacity:0.0; 
stroke:#000000; stroke-width:59.0551; stroke-opacity:1; 
stroke-linecap:round; stroke-linejoin:round;">
<text x="4330.71" y="73090.6"
textLength="570.866" font-size="682.415" lengthAdjust="spacingAndGlyphs"
text-anchor="middle" opacity="0">D</text>
<path d="M4196 73066
L4196 72554
L4318 72554
L4391 72578
L4440 72627
L4464 72676
L4489 72773
L4489 72846
L4464 72944
L4440 72993
L4391 73041
L4318 73066
L4196 73066
" />
</g>
<g style="fill:#000000; fill-opacity:0.0; 
stroke:#000000; stroke-width:39.3701; stroke-opacity:1; 
stroke-linecap:round; stroke-linejoin:round;">
</g>
<g style="fill:#000000; fill-opacity:0.0; 
stroke:#000000; stroke-width:59.0551; stroke-opacity:1; 
stroke-linecap:round; stroke-linejoin:round;">
<path d="M112992 23622
L112205 23622
" />
</g>
<g style="fill:#000000; fill-opacity:0.0; 
stroke:#000000; stroke-width:39.3701; stroke-opacity:1; 
stroke-linecap:round; stroke-linejoin:round;">
</g>
<g style="fill:#000000; fill-opacity:0.0; 
stroke:#000000; stroke-width:59.0551; stroke-opacity:1; 
stroke-linecap:round; stroke-linejoin:round;">
<path d="M112992 43307
L112205 43307
" />
</g>
<g style="fill:#000000; fill-opacity:0.0; 
stroke:#000000; stroke-width:39.3701; stroke-opacity:1; 
stroke-linecap:round; stroke-linejoin:round;">
</g>
<g style="fill:#000000; fill-opacity:0.0; 
stroke:#000000; stroke-width:59.0551; stroke-opacity:1; 
stroke-linecap:round; stroke-linejoin:round;">
<path d="M112992 62992
L112205 62992
" />
</g>
<g style="fill:#000000; fill-opacity:0.0; 
stroke:#000000; stroke-width:39.3701; stroke-opacity:1; 
stroke-linecap:round; stroke-linejoin:round;">
</g>
<g style="fill:#000000; fill-opacity:0.0; 
stroke:#000000; stroke-width:59.0551; stroke-opacity:1; 
stroke-linecap:round; stroke-linejoin:round;">
<text x="112599" y="14035.4"
textLength="497.75" font-size="682.415" lengthAdjust="spacingAndGlyphs"
text-anchor="middle" opacity="0">A</text>
<path d="M112477 13864
L112721 13864
" />
<path d="M112428 14011
L112599 13499
L112769 14011
" />
</g>
<g style="fill:#000000; fill-opacity:0.0; 
stroke:#000000; stroke-width:39.3701; stroke-opacity:1; 
stroke-linecap:round; stroke-linejoin:round;">
</g>
<g style="fill:#000000; fill-opacity:0.0; 
stroke:#000000; stroke-width:59.0551; stroke-opacity:1; 
stroke-linecap:round; stroke-linejoin:round;">
<text x="112599" y="33720.5"
textLength="570.866" font-size="682.415" lengthAdjust="spacingAndGlyphs"
text-anchor="middle" opacity="0">B</text>
<path d="M112635 33428
L112708 33452
L112733 33476
L112757 33525
L112757 33598
L112733 33647
L112708 33671
L112660 33696
L112465 33696
L112465 33184
L112635 33184
L112684 33208
L112708 33233
L112733 33281
L112733 33330
L112708 33379
L112684 33403
L112635 33428
L112465 33428
" />
</g>
<g style="fill:#000000; fill-opacity:0.0; 
stroke:#000000; stroke-width:39.3701; stroke-opacity:1; 
stroke-linecap:round; stroke-linejoin:round;">
</g>
<g style="fill:#000000; fill-opacity:0.0; 
stroke:#000000; stroke-width:59.0551; stroke-opacity:1; 
stroke-linecap:round; stroke-linejoin:round;">
<text x="112599" y="53405.5"
textLength="570.866" font-size="682.415" lengthAdjust="spacingAndGlyphs"
text-anchor="middle" opacity="0">C</text>
<path d="M112757 53332
L112733 53356
L112660 53381
L112611 53381
L112538 53356
L112489 53308
L112465 53259
L112440 53161
L112440 53088
L112465 52991
L112489 52942
L112538 52893
L112611 52869
L112660 52869
L112733 52893
L112757 52918
" />
</g>
<g style="fill:#000000; fill-opacity:0.0; 
stroke:#000000; stroke-width:39.3701; stroke-opacity:1; 
stroke-linecap:round; stroke-linejoin:round;">
</g>
<g style="fill:#000000; fill-opacity:0.0; 
stroke:#000000; stroke-width:59.0551; stroke-opacity:1; 
stroke-linecap:round; stroke-linejoin:round;">
<text x="112599" y="73090.6"
textLength="570.866" font-size="682.415" lengthAdjust="spacingAndGlyphs"
text-anchor="middle" opacity="0">D</text>
<path d="M112465 73066
L112465 72554
L112587 72554
L112660 72578
L112708 72627
L112733 72676
L112757 72773
L112757 72846
L112733 72944
L112708 72993
L112660 73041
L112587 73066
L112465 73066
" />
</g>
<g style="fill:#000000; fill-opacity:0.0; 
stroke:#000000; stroke-width:39.3701; stroke-opacity:1; 
stroke-linecap:round; stroke-linejoin:round;">
</g>
<g style="fill:#000000; fill-opacity:0.0; 
stroke:#000000; stroke-width:59.0551; stroke-opacity:1; 
stroke-linecap:round; stroke-linejoin:round;">
<text x="78741" y="76321.7"
textLength="8720.47" font-size="787.402" lengthAdjust="spacingAndGlyphs"
text-anchor="start" opacity="0">Date: 2021-10-22</text>
<path d="M78911 76293
L78911 75703
L79051 75703
L79136 75731
L79192 75787
L79220 75843
L79248 75956
L79248 76040
L79220 76153
L79192 76209
L79136 76265
L79051 76293
L78911 76293
" />
<path d="M79754 76293
L79754 75984
L79726 75928
L79670 75899
L79557 75899
L79501 75928
" />
<path d="M79754 76265
L79698 76293
L79557 76293
L79501 76265
L79473 76209
L79473 76153
L79501 76096
L79557 76068
L79698 76068
L79754 76040
" />
<path d="M79951 75899
L80176 75899
" />
<path d="M80036 75703
L80036 76209
L80064 76265
L80120 76293
L80176 76293
" />
<path d="M80598 76265
L80542 76293
L80429 76293
L80373 76265
L80345 76209
L80345 75984
L80373 75928
L80429 75899
L80542 75899
L80598 75928
L80626 75984
L80626 76040
L80345 76096
" />
<path d="M80879 76237
L80907 76265
L80879 76293
L80851 76265
L80879 76237
L80879 76293
" />
<path d="M80879 75928
L80907 75956
L80879 75984
L80851 75956
L80879 75928
L80879 75984
" />
<path d="M81582 75759
L81610 75731
L81667 75703
L81807 75703
L81863 75731
L81892 75759
L81920 75815
L81920 75871
L81892 75956
L81554 76293
L81920 76293
" />
<path d="M82285 75703
L82341 75703
L82398 75731
L82426 75759
L82454 75815
L82482 75928
L82482 76068
L82454 76181
L82426 76237
L82398 76265
L82341 76293
L82285 76293
L82229 76265
L82201 76237
L82173 76181
L82145 76068
L82145 75928
L82173 75815
L82201 75759
L82229 75731
L82285 75703
" />
<path d="M82707 75759
L82735 75731
L82791 75703
L82932 75703
L82988 75731
L83016 75759
L83045 75815
L83045 75871
L83016 75956
L82679 76293
L83045 76293
" />
<path d="M83607 76293
L83269 76293
" />
<path d="M83438 76293
L83438 75703
L83382 75787
L83326 75843
L83269 75871
" />
<path d="M83860 76068
L84310 76068
" />
<path d="M84901 76293
L84563 76293
" />
<path d="M84732 76293
L84732 75703
L84676 75787
L84619 75843
L84563 75871
" />
<path d="M85266 75703
L85322 75703
L85379 75731
L85407 75759
L85435 75815
L85463 75928
L85463 76068
L85435 76181
L85407 76237
L85379 76265
L85322 76293
L85266 76293
L85210 76265
L85182 76237
L85154 76181
L85126 76068
L85126 75928
L85154 75815
L85182 75759
L85210 75731
L85266 75703
" />
<path d="M85716 76068
L86166 76068
" />
<path d="M86419 75759
L86447 75731
L86503 75703
L86644 75703
L86700 75731
L86728 75759
L86757 75815
L86757 75871
L86728 75956
L86391 76293
L86757 76293
" />
<path d="M86982 75759
L87010 75731
L87066 75703
L87206 75703
L87263 75731
L87291 75759
L87319 75815
L87319 75871
L87291 75956
L86953 76293
L87319 76293
" />
</g>
<g style="fill:#000000; fill-opacity:0.0; 
stroke:#000000; stroke-width:39.3701; stroke-opacity:1; 
stroke-linecap:round; stroke-linejoin:round;">
</g>
<g style="fill:#000000; fill-opacity:0.0; 
stroke:#000000; stroke-width:59.0551; stroke-opacity:1; 
stroke-linecap:round; stroke-linejoin:round;">
<path d="M69685 76577
L112205 76577
" />
</g>
<g style="fill:#000000; fill-opacity:0.0; 
stroke:#000000; stroke-width:39.3701; stroke-opacity:1; 
stroke-linecap:round; stroke-linejoin:round;">
</g>
<g style="fill:#000000; fill-opacity:0.0; 
stroke:#000000; stroke-width:59.0551; stroke-opacity:1; 
stroke-linecap:round; stroke-linejoin:round;">
<text x="70079.6" y="77424.1"
textLength="14091.7" font-size="787.402" lengthAdjust="spacingAndGlyphs"
text-anchor="start" opacity="0">KiCad E.D.A.  kicad (5.1.10)-1</text>
<path d="M70249 77395
L70249 76805
" />
<path d="M70587 77395
L70334 77058
" />
<path d="M70587 76805
L70249 77142
" />
<path d="M70840 77395
L70840 77002
" />
<path d="M70840 76805
L70812 76833
L70840 76861
L70868 76833
L70840 76805
L70840 76861
" />
<path d="M71458 77339
L71430 77367
L71346 77395
L71290 77395
L71205 77367
L71149 77311
L71121 77255
L71093 77142
L71093 77058
L71121 76946
L71149 76889
L71205 76833
L71290 76805
L71346 76805
L71430 76833
L71458 76861
" />
<path d="M71965 77395
L71965 77086
L71937 77030
L71880 77002
L71768 77002
L71712 77030
" />
<path d="M71965 77367
L71908 77395
L71768 77395
L71712 77367
L71683 77311
L71683 77255
L71712 77199
L71768 77171
L71908 77171
L71965 77142
" />
<path d="M72499 77395
L72499 76805
" />
<path d="M72499 77367
L72443 77395
L72330 77395
L72274 77367
L72246 77339
L72218 77283
L72218 77114
L72246 77058
L72274 77030
L72330 77002
L72443 77002
L72499 77030
" />
<path d="M73230 77086
L73427 77086
" />
<path d="M73511 77395
L73230 77395
L73230 76805
L73511 76805
" />
<path d="M73764 77339
L73793 77367
L73764 77395
L73736 77367
L73764 77339
L73764 77395
" />
<path d="M74046 77395
L74046 76805
L74186 76805
L74271 76833
L74327 76889
L74355 76946
L74383 77058
L74383 77142
L74355 77255
L74327 77311
L74271 77367
L74186 77395
L74046 77395
" />
<path d="M74636 77339
L74664 77367
L74636 77395
L74608 77367
L74636 77339
L74636 77395
" />
<path d="M74889 77227
L75171 77227
" />
<path d="M74833 77395
L75030 76805
L75227 77395
" />
<path d="M75424 77339
L75452 77367
L75424 77395
L75395 77367
L75424 77339
L75424 77395
" />
<path d="M76605 77395
L76605 76805
" />
<path d="M76661 77171
L76830 77395
" />
<path d="M76830 77002
L76605 77227
" />
<path d="M77083 77395
L77083 77002
" />
<path d="M77083 76805
L77055 76833
L77083 76861
L77111 76833
L77083 76805
L77083 76861
" />
<path d="M77617 77367
L77561 77395
L77448 77395
L77392 77367
L77364 77339
L77336 77283
L77336 77114
L77364 77058
L77392 77030
L77448 77002
L77561 77002
L77617 77030
" />
<path d="M78123 77395
L78123 77086
L78095 77030
L78039 77002
L77926 77002
L77870 77030
" />
<path d="M78123 77367
L78067 77395
L77926 77395
L77870 77367
L77842 77311
L77842 77255
L77870 77199
L77926 77171
L78067 77171
L78123 77142
" />
<path d="M78658 77395
L78658 76805
" />
<path d="M78658 77367
L78601 77395
L78489 77395
L78433 77367
L78404 77339
L78376 77283
L78376 77114
L78404 77058
L78433 77030
L78489 77002
L78601 77002
L78658 77030
" />
<path d="M79557 77620
L79529 77592
L79473 77508
L79445 77452
L79417 77367
L79389 77227
L79389 77114
L79417 76974
L79445 76889
L79473 76833
L79529 76749
L79557 76721
" />
<path d="M80064 76805
L79782 76805
L79754 77086
L79782 77058
L79839 77030
L79979 77030
L80036 77058
L80064 77086
L80092 77142
L80092 77283
L80064 77339
L80036 77367
L79979 77395
L79839 77395
L79782 77367
L79754 77339
" />
<path d="M80345 77339
L80373 77367
L80345 77395
L80317 77367
L80345 77339
L80345 77395
" />
<path d="M80935 77395
L80598 77395
" />
<path d="M80767 77395
L80767 76805
L80710 76889
L80654 76946
L80598 76974
" />
<path d="M81188 77339
L81217 77367
L81188 77395
L81160 77367
L81188 77339
L81188 77395
" />
<path d="M81779 77395
L81442 77395
" />
<path d="M81610 77395
L81610 76805
L81554 76889
L81498 76946
L81442 76974
" />
<path d="M82145 76805
L82201 76805
L82257 76833
L82285 76861
L82313 76917
L82341 77030
L82341 77171
L82313 77283
L82285 77339
L82257 77367
L82201 77395
L82145 77395
L82088 77367
L82060 77339
L82032 77283
L82004 77171
L82004 77030
L82032 76917
L82060 76861
L82088 76833
L82145 76805
" />
<path d="M82538 77620
L82566 77592
L82623 77508
L82651 77452
L82679 77367
L82707 77227
L82707 77114
L82679 76974
L82651 76889
L82623 76833
L82566 76749
L82538 76721
" />
<path d="M82988 77171
L83438 77171
" />
<path d="M84029 77395
L83691 77395
" />
<path d="M83860 77395
L83860 76805
L83804 76889
L83748 76946
L83691 76974
" />
</g>
<g style="fill:#000000; fill-opacity:0.0; 
stroke:#000000; stroke-width:39.3701; stroke-opacity:1; 
stroke-linecap:round; stroke-linejoin:round;">
</g>
<g style="fill:#000000; fill-opacity:0.0; 
stroke:#000000; stroke-width:59.0551; stroke-opacity:1; 
stroke-linecap:round; stroke-linejoin:round;">
<path d="M69685 75396
L112205 75396
" />
</g>
<g style="fill:#000000; fill-opacity:0.0; 
stroke:#000000; stroke-width:39.3701; stroke-opacity:1; 
stroke-linecap:round; stroke-linejoin:round;">
</g>
<g style="fill:#000000; fill-opacity:0.0; 
stroke:#000000; stroke-width:118.11; stroke-opacity:1; 
stroke-linecap:round; stroke-linejoin:round;">
<text x="103544" y="76321.7"
textLength="4249.16" font-size="787.402" lengthAdjust="spacingAndGlyphs"
text-anchor="start" opacity="0">Rev: V1.0</text>
<path d="M104099 76293
L103902 76012
" />
<path d="M103761 76293
L103761 75703
L103986 75703
L104042 75731
L104070 75759
L104099 75815
L104099 75899
L104070 75956
L104042 75984
L103986 76012
L103761 76012
" />
<path d="M104577 76265
L104520 76293
L104408 76293
L104352 76265
L104323 76209
L104323 75984
L104352 75928
L104408 75899
L104520 75899
L104577 75928
L104605 75984
L104605 76040
L104323 76096
" />
<path d="M104802 75899
L104942 76293
L105083 75899
" />
<path d="M105308 76237
L105336 76265
L105308 76293
L105280 76265
L105308 76237
L105308 76293
" />
<path d="M105308 75928
L105336 75956
L105308 75984
L105280 75956
L105308 75928
L105308 75984
" />
<path d="M105955 75703
L106151 76293
L106348 75703
" />
<path d="M106854 76293
L106517 76293
" />
<path d="M106686 76293
L106686 75703
L106629 75787
L106573 75843
L106517 75871
" />
<path d="M107108 76237
L107136 76265
L107108 76293
L107079 76265
L107108 76237
L107108 76293
" />
<path d="M107501 75703
L107557 75703
L107614 75731
L107642 75759
L107670 75815
L107698 75928
L107698 76068
L107670 76181
L107642 76237
L107614 76265
L107557 76293
L107501 76293
L107445 76265
L107417 76237
L107389 76181
L107361 76068
L107361 75928
L107389 75815
L107417 75759
L107445 75731
L107501 75703
" />
</g>
<g style="fill:#000000; fill-opacity:0.0; 
stroke:#000000; stroke-width:39.3701; stroke-opacity:1; 
stroke-linecap:round; stroke-linejoin:round;">
</g>
<g style="fill:#000000; fill-opacity:0.0; 
stroke:#000000; stroke-width:59.0551; stroke-opacity:1; 
stroke-linecap:round; stroke-linejoin:round;">
<text x="70079.6" y="76321.7"
textLength="3781.21" font-size="787.402" lengthAdjust="spacingAndGlyphs"
text-anchor="start" opacity="0">Size: A4</text>
<path d="M70221 76265
L70305 76293
L70446 76293
L70502 76265
L70530 76237
L70559 76181
L70559 76124
L70530 76068
L70502 76040
L70446 76012
L70334 75984
L70277 75956
L70249 75928
L70221 75871
L70221 75815
L70249 75759
L70277 75731
L70334 75703
L70474 75703
L70559 75731
" />
<path d="M70812 76293
L70812 75899
" />
<path d="M70812 75703
L70784 75731
L70812 75759
L70840 75731
L70812 75703
L70812 75759
" />
<path d="M71037 75899
L71346 75899
L71037 76293
L71346 76293
" />
<path d="M71796 76265
L71740 76293
L71627 76293
L71571 76265
L71543 76209
L71543 75984
L71571 75928
L71627 75899
L71740 75899
L71796 75928
L71824 75984
L71824 76040
L71543 76096
" />
<path d="M72077 76237
L72105 76265
L72077 76293
L72049 76265
L72077 76237
L72077 76293
" />
<path d="M72077 75928
L72105 75956
L72077 75984
L72049 75956
L72077 75928
L72077 75984
" />
<path d="M72780 76124
L73061 76124
" />
<path d="M72724 76293
L72921 75703
L73118 76293
" />
<path d="M73568 75899
L73568 76293
" />
<path d="M73427 75674
L73286 76096
L73652 76096
" />
</g>
<g style="fill:#000000; fill-opacity:0.0; 
stroke:#000000; stroke-width:39.3701; stroke-opacity:1; 
stroke-linecap:round; stroke-linejoin:round;">
</g>
<g style="fill:#000000; fill-opacity:0.0; 
stroke:#000000; stroke-width:59.0551; stroke-opacity:1; 
stroke-linecap:round; stroke-linejoin:round;">
<text x="103544" y="77424.1"
textLength="3349.27" font-size="787.402" lengthAdjust="spacingAndGlyphs"
text-anchor="start" opacity="0">Id: 1/1</text>
<path d="M103714 77395
L103714 76805
" />
<path d="M104248 77395
L104248 76805
" />
<path d="M104248 77367
L104192 77395
L104079 77395
L104023 77367
L103995 77339
L103967 77283
L103967 77114
L103995 77058
L104023 77030
L104079 77002
L104192 77002
L104248 77030
" />
<path d="M104529 77339
L104557 77367
L104529 77395
L104501 77367
L104529 77339
L104529 77395
" />
<path d="M104529 77030
L104557 77058
L104529 77086
L104501 77058
L104529 77030
L104529 77086
" />
<path d="M105570 77395
L105232 77395
" />
<path d="M105401 77395
L105401 76805
L105345 76889
L105289 76946
L105232 76974
" />
<path d="M106245 76777
L105739 77536
" />
<path d="M106751 77395
L106413 77395
" />
<path d="M106582 77395
L106582 76805
L106526 76889
L106470 76946
L106413 76974
" />
</g>
<g style="fill:#000000; fill-opacity:0.0; 
stroke:#000000; stroke-width:39.3701; stroke-opacity:1; 
stroke-linecap:round; stroke-linejoin:round;">
</g>
<g style="fill:#000000; fill-opacity:0.0; 
stroke:#000000; stroke-width:59.0551; stroke-opacity:1; 
stroke-linecap:round; stroke-linejoin:round;">
<path d="M69685 73821
L112205 73821
" />
</g>
<g style="fill:#000000; fill-opacity:0.0; 
stroke:#000000; stroke-width:39.3701; stroke-opacity:1; 
stroke-linecap:round; stroke-linejoin:round;">
</g>
<g style="fill:#000000; fill-opacity:0.0; 
stroke:#000000; stroke-width:157.48; stroke-opacity:1; 
stroke-linecap:round; stroke-linejoin:round;">
<text x="70079.6" y="74924.1"
textLength="15699.6" font-size="1049.87" lengthAdjust="spacingAndGlyphs"
text-anchor="start" opacity="0">Title: ZMPT101B improved</text>
<path d="M70360 74099
L70810 74099
" />
<path d="M70486 74886
L70585 74099
" />
<path d="M70974 74886
L71039 74361
" />
<path d="M71072 74099
L71030 74136
L71063 74174
L71105 74136
L71072 74099
L71063 74174
" />
<path d="M71302 74361
L71602 74361
" />
<path d="M71447 74099
L71363 74774
L71391 74849
L71461 74886
L71536 74886
" />
<path d="M71911 74886
L71841 74849
L71813 74774
L71897 74099
" />
<path d="M72516 74849
L72436 74886
L72286 74886
L72216 74849
L72187 74774
L72225 74474
L72272 74399
L72352 74361
L72501 74361
L72572 74399
L72600 74474
L72591 74549
L72206 74624
" />
<path d="M72895 74811
L72928 74849
L72886 74886
L72853 74849
L72895 74811
L72886 74886
" />
<path d="M72947 74399
L72980 74436
L72937 74474
L72905 74436
L72947 74399
L72937 74474
" />
<path d="M73884 74099
L74409 74099
L73786 74886
L74311 74886
" />
<path d="M74611 74886
L74709 74099
L74901 74661
L75234 74099
L75136 74886
" />
<path d="M75510 74886
L75609 74099
L75909 74099
L75979 74136
L76012 74174
L76040 74249
L76026 74361
L75979 74436
L75937 74474
L75857 74511
L75557 74511
" />
<path d="M76284 74099
L76734 74099
" />
<path d="M76410 74886
L76509 74099
" />
<path d="M77310 74886
L76860 74886
" />
<path d="M77085 74886
L77184 74099
L77095 74211
L77010 74286
L76931 74324
" />
<path d="M77896 74099
L77971 74099
L78041 74136
L78074 74174
L78102 74249
L78121 74399
L78098 74586
L78041 74736
L77995 74811
L77952 74849
L77873 74886
L77798 74886
L77727 74849
L77695 74811
L77666 74736
L77648 74586
L77671 74399
L77727 74249
L77774 74174
L77816 74136
L77896 74099
" />
<path d="M78810 74886
L78360 74886
" />
<path d="M78585 74886
L78684 74099
L78594 74211
L78510 74286
L78430 74324
" />
<path d="M79462 74474
L79569 74511
L79602 74549
L79630 74624
L79616 74736
L79569 74811
L79527 74849
L79447 74886
L79148 74886
L79246 74099
L79508 74099
L79579 74136
L79612 74174
L79640 74249
L79630 74324
L79583 74399
L79541 74436
L79462 74474
L79199 74474
" />
<path d="M80535 74886
L80600 74361
" />
<path d="M80633 74099
L80591 74136
L80624 74174
L80666 74136
L80633 74099
L80624 74174
" />
<path d="M80910 74886
L80975 74361
" />
<path d="M80966 74436
L81008 74399
L81088 74361
L81200 74361
L81271 74399
L81299 74474
L81247 74886
" />
<path d="M81299 74474
L81346 74399
L81425 74361
L81538 74361
L81608 74399
L81636 74474
L81585 74886
" />
<path d="M82025 74361
L81927 75149
" />
<path d="M82021 74399
L82100 74361
L82250 74361
L82321 74399
L82353 74436
L82382 74511
L82353 74736
L82307 74811
L82264 74849
L82185 74886
L82035 74886
L81964 74849
" />
<path d="M82672 74886
L82738 74361
" />
<path d="M82719 74511
L82766 74436
L82808 74399
L82888 74361
L82963 74361
" />
<path d="M83272 74886
L83202 74849
L83169 74811
L83141 74736
L83169 74511
L83216 74436
L83258 74399
L83338 74361
L83450 74361
L83520 74399
L83553 74436
L83581 74511
L83553 74736
L83506 74811
L83464 74849
L83385 74886
L83272 74886
" />
<path d="M83863 74361
L83984 74886
L84238 74361
" />
<path d="M84777 74849
L84697 74886
L84547 74886
L84477 74849
L84448 74774
L84486 74474
L84533 74399
L84612 74361
L84762 74361
L84833 74399
L84861 74474
L84852 74549
L84467 74624
" />
<path d="M85484 74886
L85583 74099
" />
<path d="M85489 74849
L85409 74886
L85259 74886
L85189 74849
L85156 74811
L85128 74736
L85156 74511
L85203 74436
L85245 74399
L85325 74361
L85475 74361
L85545 74399
" />
</g>
<g style="fill:#000000; fill-opacity:0.0; 
stroke:#000000; stroke-width:39.3701; stroke-opacity:1; 
stroke-linecap:round; stroke-linejoin:round;">
</g>
<g style="fill:#000000; fill-opacity:0.0; 
stroke:#000000; stroke-width:59.0551; stroke-opacity:1; 
stroke-linecap:round; stroke-linejoin:round;">
<text x="70079.6" y="73408.3"
textLength="15334.1" font-size="787.402" lengthAdjust="spacingAndGlyphs"
text-anchor="start" opacity="0">File: ZMPT101enhanced.kicad_pcb</text>
<path d="M70446 73070
L70249 73070
" />
<path d="M70249 73380
L70249 72789
L70530 72789
" />
<path d="M70755 73380
L70755 72986
" />
<path d="M70755 72789
L70727 72817
L70755 72845
L70784 72817
L70755 72789
L70755 72845
" />
<path d="M71121 73380
L71065 73352
L71037 73295
L71037 72789
" />
<path d="M71571 73352
L71515 73380
L71402 73380
L71346 73352
L71318 73295
L71318 73070
L71346 73014
L71402 72986
L71515 72986
L71571 73014
L71599 73070
L71599 73127
L71318 73183
" />
<path d="M71852 73323
L71880 73352
L71852 73380
L71824 73352
L71852 73323
L71852 73380
" />
<path d="M71852 73014
L71880 73042
L71852 73070
L71824 73042
L71852 73014
L71852 73070
" />
<path d="M72527 72789
L72921 72789
L72527 73380
L72921 73380
" />
<path d="M73146 73380
L73146 72789
L73343 73211
L73539 72789
L73539 73380
" />
<path d="M73821 73380
L73821 72789
L74046 72789
L74102 72817
L74130 72845
L74158 72902
L74158 72986
L74130 73042
L74102 73070
L74046 73099
L73821 73099
" />
<path d="M74327 72789
L74664 72789
" />
<path d="M74496 73380
L74496 72789
" />
<path d="M75171 73380
L74833 73380
" />
<path d="M75002 73380
L75002 72789
L74946 72874
L74889 72930
L74833 72958
" />
<path d="M75536 72789
L75592 72789
L75649 72817
L75677 72845
L75705 72902
L75733 73014
L75733 73155
L75705 73267
L75677 73323
L75649 73352
L75592 73380
L75536 73380
L75480 73352
L75452 73323
L75424 73267
L75395 73155
L75395 73014
L75424 72902
L75452 72845
L75480 72817
L75536 72789
" />
<path d="M76295 73380
L75958 73380
" />
<path d="M76127 73380
L76127 72789
L76070 72874
L76014 72930
L75958 72958
" />
<path d="M76773 73352
L76717 73380
L76605 73380
L76548 73352
L76520 73295
L76520 73070
L76548 73014
L76605 72986
L76717 72986
L76773 73014
L76802 73070
L76802 73127
L76520 73183
" />
<path d="M77055 72986
L77055 73380
" />
<path d="M77055 73042
L77083 73014
L77139 72986
L77223 72986
L77280 73014
L77308 73070
L77308 73380
" />
<path d="M77589 73380
L77589 72789
" />
<path d="M77842 73380
L77842 73070
L77814 73014
L77758 72986
L77673 72986
L77617 73014
L77589 73042
" />
<path d="M78376 73380
L78376 73070
L78348 73014
L78292 72986
L78180 72986
L78123 73014
" />
<path d="M78376 73352
L78320 73380
L78180 73380
L78123 73352
L78095 73295
L78095 73239
L78123 73183
L78180 73155
L78320 73155
L78376 73127
" />
<path d="M78658 72986
L78658 73380
" />
<path d="M78658 73042
L78686 73014
L78742 72986
L78826 72986
L78883 73014
L78911 73070
L78911 73380
" />
<path d="M79445 73352
L79389 73380
L79276 73380
L79220 73352
L79192 73323
L79164 73267
L79164 73099
L79192 73042
L79220 73014
L79276 72986
L79389 72986
L79445 73014
" />
<path d="M79923 73352
L79867 73380
L79754 73380
L79698 73352
L79670 73295
L79670 73070
L79698 73014
L79754 72986
L79867 72986
L79923 73014
L79951 73070
L79951 73127
L79670 73183
" />
<path d="M80457 73380
L80457 72789
" />
<path d="M80457 73352
L80401 73380
L80289 73380
L80232 73352
L80204 73323
L80176 73267
L80176 73099
L80204 73042
L80232 73014
L80289 72986
L80401 72986
L80457 73014
" />
<path d="M80739 73323
L80767 73352
L80739 73380
L80710 73352
L80739 73323
L80739 73380
" />
<path d="M81020 73380
L81020 72789
" />
<path d="M81076 73155
L81245 73380
" />
<path d="M81245 72986
L81020 73211
" />
<path d="M81498 73380
L81498 72986
" />
<path d="M81498 72789
L81470 72817
L81498 72845
L81526 72817
L81498 72789
L81498 72845
" />
<path d="M82032 73352
L81976 73380
L81863 73380
L81807 73352
L81779 73323
L81751 73267
L81751 73099
L81779 73042
L81807 73014
L81863 72986
L81976 72986
L82032 73014
" />
<path d="M82538 73380
L82538 73070
L82510 73014
L82454 72986
L82341 72986
L82285 73014
" />
<path d="M82538 73352
L82482 73380
L82341 73380
L82285 73352
L82257 73295
L82257 73239
L82285 73183
L82341 73155
L82482 73155
L82538 73127
" />
<path d="M83073 73380
L83073 72789
" />
<path d="M83073 73352
L83016 73380
L82904 73380
L82848 73352
L82820 73323
L82791 73267
L82791 73099
L82820 73042
L82848 73014
L82904 72986
L83016 72986
L83073 73014
" />
<path d="M83213 73436
L83663 73436
" />
<path d="M83804 72986
L83804 73577
" />
<path d="M83804 73014
L83860 72986
L83973 72986
L84029 73014
L84057 73042
L84085 73099
L84085 73267
L84057 73323
L84029 73352
L83973 73380
L83860 73380
L83804 73352
" />
<path d="M84591 73352
L84535 73380
L84422 73380
L84366 73352
L84338 73323
L84310 73267
L84310 73099
L84338 73042
L84366 73014
L84422 72986
L84535 72986
L84591 73014
" />
<path d="M84844 73380
L84844 72789
" />
<path d="M84844 73014
L84901 72986
L85013 72986
L85069 73014
L85097 73042
L85126 73099
L85126 73267
L85097 73323
L85069 73352
L85013 73380
L84901 73380
L84844 73352
" />
</g>
<g style="fill:#000000; fill-opacity:0.0; 
stroke:#000000; stroke-width:39.3701; stroke-opacity:1; 
stroke-linecap:round; stroke-linejoin:round;">
</g>
<g style="fill:#000000; fill-opacity:0.0; 
stroke:#000000; stroke-width:59.0551; stroke-opacity:1; 
stroke-linecap:round; stroke-linejoin:round;">
<path d="M69685 71459
L112205 71459
" />
</g>
<g style="fill:#000000; fill-opacity:0.0; 
stroke:#000000; stroke-width:39.3701; stroke-opacity:1; 
stroke-linecap:round; stroke-linejoin:round;">
</g>
<g style="fill:#000000; fill-opacity:0.0; 
stroke:#000000; stroke-width:59.0551; stroke-opacity:1; 
stroke-linecap:round; stroke-linejoin:round;">
<text x="70079.6" y="72345.4"
textLength="3236.78" font-size="787.402" lengthAdjust="spacingAndGlyphs"
text-anchor="start" opacity="0">Sheet: </text>
<path d="M70221 72289
L70305 72317
L70446 72317
L70502 72289
L70530 72260
L70559 72204
L70559 72148
L70530 72092
L70502 72064
L70446 72036
L70334 72007
L70277 71979
L70249 71951
L70221 71895
L70221 71839
L70249 71782
L70277 71754
L70334 71726
L70474 71726
L70559 71754
" />
<path d="M70812 72317
L70812 71726
" />
<path d="M71065 72317
L71065 72007
L71037 71951
L70980 71923
L70896 71923
L70840 71951
L70812 71979
" />
<path d="M71571 72289
L71515 72317
L71402 72317
L71346 72289
L71318 72232
L71318 72007
L71346 71951
L71402 71923
L71515 71923
L71571 71951
L71599 72007
L71599 72064
L71318 72120
" />
<path d="M72077 72289
L72021 72317
L71908 72317
L71852 72289
L71824 72232
L71824 72007
L71852 71951
L71908 71923
L72021 71923
L72077 71951
L72105 72007
L72105 72064
L71824 72120
" />
<path d="M72274 71923
L72499 71923
" />
<path d="M72358 71726
L72358 72232
L72386 72289
L72443 72317
L72499 72317
" />
<path d="M72696 72260
L72724 72289
L72696 72317
L72668 72289
L72696 72260
L72696 72317
" />
<path d="M72696 71951
L72724 71979
L72696 72007
L72668 71979
L72696 71951
L72696 72007
" />
</g>
<g style="fill:#000000; fill-opacity:0.0; 
stroke:#000000; stroke-width:39.3701; stroke-opacity:1; 
stroke-linecap:round; stroke-linejoin:round;">
</g>
<g style="fill:#000000; fill-opacity:0.0; 
stroke:#000000; stroke-width:59.0551; stroke-opacity:1; 
stroke-linecap:round; stroke-linejoin:round;">
<text x="70079.6" y="69983.1"
textLength="12066.9" font-size="787.402" lengthAdjust="spacingAndGlyphs"
text-anchor="start" opacity="0">Boudersa Ala Walie Eddine</text>
<path d="M70446 69645
L70530 69673
L70559 69701
L70587 69758
L70587 69842
L70559 69898
L70530 69926
L70474 69955
L70249 69955
L70249 69364
L70446 69364
L70502 69392
L70530 69420
L70559 69476
L70559 69533
L70530 69589
L70502 69617
L70446 69645
L70249 69645
" />
<path d="M70924 69955
L70868 69926
L70840 69898
L70812 69842
L70812 69673
L70840 69617
L70868 69589
L70924 69561
L71009 69561
L71065 69589
L71093 69617
L71121 69673
L71121 69842
L71093 69898
L71065 69926
L71009 69955
L70924 69955
" />
<path d="M71627 69561
L71627 69955
" />
<path d="M71374 69561
L71374 69870
L71402 69926
L71458 69955
L71543 69955
L71599 69926
L71627 69898
" />
<path d="M72162 69955
L72162 69364
" />
<path d="M72162 69926
L72105 69955
L71993 69955
L71937 69926
L71908 69898
L71880 69842
L71880 69673
L71908 69617
L71937 69589
L71993 69561
L72105 69561
L72162 69589
" />
<path d="M72668 69926
L72611 69955
L72499 69955
L72443 69926
L72415 69870
L72415 69645
L72443 69589
L72499 69561
L72611 69561
L72668 69589
L72696 69645
L72696 69701
L72415 69758
" />
<path d="M72949 69955
L72949 69561
" />
<path d="M72949 69673
L72977 69617
L73005 69589
L73061 69561
L73118 69561
" />
<path d="M73286 69926
L73343 69955
L73455 69955
L73511 69926
L73539 69870
L73539 69842
L73511 69786
L73455 69758
L73371 69758
L73314 69730
L73286 69673
L73286 69645
L73314 69589
L73371 69561
L73455 69561
L73511 69589
" />
<path d="M74046 69955
L74046 69645
L74018 69589
L73961 69561
L73849 69561
L73793 69589
" />
<path d="M74046 69926
L73989 69955
L73849 69955
L73793 69926
L73764 69870
L73764 69814
L73793 69758
L73849 69730
L73989 69730
L74046 69701
" />
<path d="M74749 69786
L75030 69786
" />
<path d="M74692 69955
L74889 69364
L75086 69955
" />
<path d="M75367 69955
L75311 69926
L75283 69870
L75283 69364
" />
<path d="M75845 69955
L75845 69645
L75817 69589
L75761 69561
L75649 69561
L75592 69589
" />
<path d="M75845 69926
L75789 69955
L75649 69955
L75592 69926
L75564 69870
L75564 69814
L75592 69758
L75649 69730
L75789 69730
L75845 69701
" />
<path d="M76520 69364
L76661 69955
L76773 69533
L76886 69955
L77027 69364
" />
<path d="M77505 69955
L77505 69645
L77476 69589
L77420 69561
L77308 69561
L77251 69589
" />
<path d="M77505 69926
L77448 69955
L77308 69955
L77251 69926
L77223 69870
L77223 69814
L77251 69758
L77308 69730
L77448 69730
L77505 69701
" />
<path d="M77870 69955
L77814 69926
L77786 69870
L77786 69364
" />
<path d="M78095 69955
L78095 69561
" />
<path d="M78095 69364
L78067 69392
L78095 69420
L78123 69392
L78095 69364
L78095 69420
" />
<path d="M78601 69926
L78545 69955
L78433 69955
L78376 69926
L78348 69870
L78348 69645
L78376 69589
L78433 69561
L78545 69561
L78601 69589
L78629 69645
L78629 69701
L78348 69758
" />
<path d="M79332 69645
L79529 69645
" />
<path d="M79614 69955
L79332 69955
L79332 69364
L79614 69364
" />
<path d="M80120 69955
L80120 69364
" />
<path d="M80120 69926
L80064 69955
L79951 69955
L79895 69926
L79867 69898
L79839 69842
L79839 69673
L79867 69617
L79895 69589
L79951 69561
L80064 69561
L80120 69589
" />
<path d="M80654 69955
L80654 69364
" />
<path d="M80654 69926
L80598 69955
L80485 69955
L80429 69926
L80401 69898
L80373 69842
L80373 69673
L80401 69617
L80429 69589
L80485 69561
L80598 69561
L80654 69589
" />
<path d="M80935 69955
L80935 69561
" />
<path d="M80935 69364
L80907 69392
L80935 69420
L80964 69392
L80935 69364
L80935 69420
" />
<path d="M81217 69561
L81217 69955
" />
<path d="M81217 69617
L81245 69589
L81301 69561
L81385 69561
L81442 69589
L81470 69645
L81470 69955
" />
<path d="M81976 69926
L81920 69955
L81807 69955
L81751 69926
L81723 69870
L81723 69645
L81751 69589
L81807 69561
L81920 69561
L81976 69589
L82004 69645
L82004 69701
L81723 69758
" />
</g>
<g style="fill:#000000; fill-opacity:0.0; 
stroke:#000000; stroke-width:39.3701; stroke-opacity:1; 
stroke-linecap:round; stroke-linejoin:round;">
</g>
<g style="fill:#000000; fill-opacity:0.0; 
stroke:#000000; stroke-width:59.0551; stroke-opacity:1; 
stroke-linecap:round; stroke-linejoin:round;">
<path d="M77559 75396
L77559 76577
" />
</g>
<g style="fill:#000000; fill-opacity:0.0; 
stroke:#000000; stroke-width:39.3701; stroke-opacity:1; 
stroke-linecap:round; stroke-linejoin:round;">
</g>
<g style="fill:#000000; fill-opacity:0.0; 
stroke:#000000; stroke-width:59.0551; stroke-opacity:1; 
stroke-linecap:round; stroke-linejoin:round;">
<path d="M102756 75396
L102756 77955
" />
</g>
<g style="fill:#008484; fill-opacity:0.0; 
stroke:#008484; stroke-width:59.0551; stroke-opacity:1; 
stroke-linecap:round; stroke-linejoin:round;">
</g>
<g style="fill:#008484; fill-opacity:0.0; 
stroke:#008484; stroke-width:47.2441; stroke-opacity:1; 
stroke-linecap:round; stroke-linejoin:round;">
<path d="M58158 36839
L58158 37399
" />
<path d="M57441 36839
L57441 37399
" />
<path d="M56939 39858
L57499 39858
" />
<path d="M56939 39141
L57499 39141
" />
<path d="M53639 35341
L54199 35341
" />
<path d="M53639 36058
L54199 36058
" />
<path d="M51339 35158
L51899 35158
" />
<path d="M51339 34441
L51899 34441
" />
<path d="M56999 35358
L56439 35358
" />
<path d="M56999 34641
L56439 34641
" />
<path d="M54578 33253
L53049 33253
" />
<path d="M53049 33253
L53049 34146
" />
<path d="M53049 34146
L54578 34146
" />
<path d="M59176 38923
L60223 38923
" />
<path d="M59176 35900
L59176 38923
" />
<path d="M60223 35900
L60223 38923
" />
<path d="M59176 35900
L60223 35900
" />
<path d="M59176 35400
L59176 34876
" />
<path d="M59176 34876
L59700 34876
" />
<path d="M41000 39000
L41000 35000
" />
<path d="M40500 39000
L43500 39000
" />
<path d="M43500 39000
L43500 35000
" />
<path d="M43500 35000
L40500 35000
" />
<path d="M40500 35000
L40500 39000
" />
<path d="M56341 37410
L56341 36837
" />
<path d="M57058 37410
L57058 36837
" />
<path d="M56913 38958
L57486 38958
" />
<path d="M56913 38241
L57486 38241
" />
<path d="M55341 40410
L55341 39837
" />
<path d="M56058 40410
L56058 39837
" />
<path d="M51337 38158
L51910 38158
" />
<path d="M51337 37441
L51910 37441
" />
<path d="M53637 34341
L54210 34341
" />
<path d="M53637 35058
L54210 35058
" />
<path d="M51337 36441
L51910 36441
" />
<path d="M51337 37158
L51910 37158
" />
<path d="M51337 35441
L51910 35441
" />
<path d="M51337 36158
L51910 36158
" />
<path d="M56937 40758
L57510 40758
" />
<path d="M56937 40041
L57510 40041
" />
<path d="M51337 33441
L51910 33441
" />
<path d="M51337 34158
L51910 34158
" />
<path d="M42337 34658
L42910 34658
" />
<path d="M42337 33941
L42910 33941
" />
<path d="M56437 34058
L57010 34058
" />
<path d="M56437 33341
L57010 33341
" />
<path d="M50776 39003
L54623 39003
" />
<path d="M50776 41000
L54623 41000
" />
<path d="M50776 39003
L50776 41000
" />
<path d="M54623 39003
L54623 41000
" />
</g>
<g style="fill:#008484; fill-opacity:1.0; 
stroke:#008484; stroke-width:0; stroke-opacity:1; 
stroke-linecap:round; stroke-linejoin:round;">
<circle cx="49518.1" cy="33052.8" r="39.3701" /> 
<circle cx="49596.9" cy="33052.8" r="39.3701" /> 
</g>
<g style="fill:#008484; fill-opacity:1.0; 
stroke:#008484; stroke-width:39.3701; stroke-opacity:1; 
stroke-linecap:round; stroke-linejoin:round;">
</g>
<g style="fill:#008484; fill-opacity:0.0; 
stroke:#008484; stroke-width:39.3701; stroke-opacity:1; 
stroke-linecap:round; stroke-linejoin:round;">
<path d="M43612 33288
L50187 33288
" />
<path d="M43612 40848
L43612 33288
" />
<path d="M50187 40848
L43612 40848
" />
<path d="M50187 33288
L50187 40848
" />
</g>
<g style="fill:#008484; fill-opacity:0.0; 
stroke:#008484; stroke-width:78.7402; stroke-opacity:1; 
stroke-linecap:round; stroke-linejoin:round;">
<path d="M49596.9 33052.8 A39.3701 39.3701 0.0 0 0 49518.1 33052.8" />
<path d="M49518.1 33052.8 A39.3701 39.3701 0.0 0 0 49596.9 33052.8" />
</g>
<g style="fill:#008484; fill-opacity:0.0; 
stroke:#008484; stroke-width:47.2441; stroke-opacity:1; 
stroke-linecap:round; stroke-linejoin:round;">
<path d="M54600 38607
L55367 38607
" />
<path d="M54600 38607
L53832 38607
" />
<path d="M54600 36592
L55367 36592
" />
<path d="M54600 36592
L53241 36592
" />
</g>
<g style="fill:#008484; fill-opacity:0.0; 
stroke:#008484; stroke-width:59.0551; stroke-opacity:1; 
stroke-linecap:round; stroke-linejoin:round;">
<g transform="rotate(-90 57800 37119.3)">
<text x="57800" y="37316.1"
textLength="827.709" font-size="524.934" lengthAdjust="spacingAndGlyphs"
text-anchor="middle" opacity="0">C1</text>
</g>
<path d="M57940 37184
L57959 37203
L57978 37259
L57978 37297
L57959 37353
L57921 37391
L57884 37409
L57809 37428
L57753 37428
L57678 37409
L57640 37391
L57603 37353
L57584 37297
L57584 37259
L57603 37203
L57621 37184
" />
<path d="M57978 36809
L57978 37034
" />
<path d="M57978 36922
L57584 36922
L57640 36959
L57678 36997
L57696 37034
" />
<text x="57219.3" y="39696.9"
textLength="845.426" font-size="524.934" lengthAdjust="spacingAndGlyphs"
text-anchor="middle" opacity="0">C2</text>
<path d="M57153 39640
L57134 39659
L57078 39678
L57041 39678
L56984 39659
L56947 39621
L56928 39584
L56909 39509
L56909 39453
L56928 39378
L56947 39340
L56984 39303
L57041 39284
L57078 39284
L57134 39303
L57153 39321
" />
<path d="M57303 39321
L57322 39303
L57359 39284
L57453 39284
L57491 39303
L57509 39321
L57528 39359
L57528 39396
L57509 39453
L57284 39678
L57528 39678
" />
<text x="53900" y="35896.9"
textLength="845.426" font-size="524.934" lengthAdjust="spacingAndGlyphs"
text-anchor="middle" opacity="0">C3</text>
<path d="M53834 35840
L53815 35859
L53759 35878
L53721 35878
L53665 35859
L53628 35821
L53609 35784
L53590 35709
L53590 35653
L53609 35578
L53628 35540
L53665 35503
L53721 35484
L53759 35484
L53815 35503
L53834 35521
" />
<path d="M53965 35484
L54209 35484
L54078 35634
L54134 35634
L54171 35653
L54190 35671
L54209 35709
L54209 35803
L54190 35840
L54171 35859
L54134 35878
L54021 35878
L53984 35859
L53965 35840
" />
<text x="51619.3" y="34996.9"
textLength="845.426" font-size="524.934" lengthAdjust="spacingAndGlyphs"
text-anchor="middle" opacity="0">C4</text>
<path d="M51553 34940
L51534 34959
L51478 34978
L51441 34978
L51384 34959
L51347 34921
L51328 34884
L51309 34809
L51309 34753
L51328 34678
L51347 34640
L51384 34603
L51441 34584
L51478 34584
L51534 34603
L51553 34621
" />
<path d="M51891 34715
L51891 34978
" />
<path d="M51797 34565
L51703 34846
L51947 34846
" />
<text x="56719.3" y="35196.9"
textLength="845.426" font-size="524.934" lengthAdjust="spacingAndGlyphs"
text-anchor="middle" opacity="0">C5</text>
<path d="M56653 35140
L56634 35159
L56578 35178
L56541 35178
L56484 35159
L56447 35121
L56428 35084
L56409 35009
L56409 34953
L56428 34878
L56447 34840
L56484 34803
L56541 34784
L56578 34784
L56634 34803
L56653 34821
" />
<path d="M57009 34784
L56822 34784
L56803 34971
L56822 34953
L56859 34934
L56953 34934
L56991 34953
L57009 34971
L57028 35009
L57028 35103
L57009 35140
L56991 35159
L56953 35178
L56859 35178
L56822 35159
L56803 35140
" />
<text x="53948.8" y="33896.9"
textLength="845.426" font-size="524.934" lengthAdjust="spacingAndGlyphs"
text-anchor="middle" opacity="0">D1</text>
<path d="M53658 33878
L53658 33484
L53751 33484
L53808 33503
L53845 33540
L53864 33578
L53883 33653
L53883 33709
L53864 33784
L53845 33821
L53808 33859
L53751 33878
L53658 33878
" />
<path d="M54258 33878
L54033 33878
" />
<path d="M54145 33878
L54145 33484
L54108 33540
L54070 33578
L54033 33596
" />
<text x="59700" y="34679.5"
textLength="751.687" font-size="524.934" lengthAdjust="spacingAndGlyphs"
text-anchor="middle" opacity="0">J1</text>
<path d="M59568 34267
L59568 34548
L59550 34604
L59512 34642
L59456 34660
L59418 34660
" />
<path d="M59962 34660
L59737 34660
" />
<path d="M59849 34660
L59849 34267
L59812 34323
L59774 34360
L59737 34379
" />
<g transform="rotate(-90 44000 37000)">
<text x="44000" y="37196.9"
textLength="751.687" font-size="524.934" lengthAdjust="spacingAndGlyphs"
text-anchor="middle" opacity="0">J2</text>
</g>
<path d="M43784 37131
L44065 37131
L44121 37149
L44159 37187
L44178 37243
L44178 37281
" />
<path d="M43821 36962
L43803 36943
L43784 36906
L43784 36812
L43803 36775
L43821 36756
L43859 36737
L43896 36737
L43953 36756
L44178 36981
L44178 36737
" />
<g transform="rotate(-90 56700 37124.2)">
<text x="56700" y="37321.1"
textLength="845.426" font-size="524.934" lengthAdjust="spacingAndGlyphs"
text-anchor="middle" opacity="0">R1</text>
</g>
<path d="M56878 37189
L56690 37321
" />
<path d="M56878 37414
L56484 37414
L56484 37264
L56503 37227
L56521 37208
L56559 37189
L56615 37189
L56653 37208
L56671 37227
L56690 37264
L56690 37414
" />
<path d="M56878 36814
L56878 37039
" />
<path d="M56878 36927
L56484 36927
L56540 36964
L56578 37002
L56596 37039
" />
<text x="57200" y="38796.9"
textLength="845.426" font-size="524.934" lengthAdjust="spacingAndGlyphs"
text-anchor="middle" opacity="0">R2</text>
<path d="M57134 38778
L57003 38590
" />
<path d="M56909 38778
L56909 38384
L57059 38384
L57096 38403
L57115 38421
L57134 38459
L57134 38515
L57115 38553
L57096 38571
L57059 38590
L56909 38590
" />
<path d="M57284 38421
L57303 38403
L57340 38384
L57434 38384
L57471 38403
L57490 38421
L57509 38459
L57509 38496
L57490 38553
L57265 38778
L57509 38778
" />
<g transform="rotate(-90 55675.8 40124.2)">
<text x="55675.8" y="40321.1"
textLength="845.426" font-size="524.934" lengthAdjust="spacingAndGlyphs"
text-anchor="middle" opacity="0">R3</text>
</g>
<path d="M55853 40189
L55666 40321
" />
<path d="M55853 40414
L55460 40414
L55460 40264
L55478 40227
L55497 40208
L55535 40189
L55591 40189
L55628 40208
L55647 40227
L55666 40264
L55666 40414
" />
<path d="M55460 40058
L55460 39814
L55610 39946
L55610 39889
L55628 39852
L55647 39833
L55685 39814
L55778 39814
L55816 39833
L55835 39852
L55853 39889
L55853 40002
L55835 40039
L55816 40058
" />
<text x="51624.2" y="37996.9"
textLength="845.426" font-size="524.934" lengthAdjust="spacingAndGlyphs"
text-anchor="middle" opacity="0">R4</text>
<path d="M51558 37978
L51427 37790
" />
<path d="M51333 37978
L51333 37584
L51483 37584
L51521 37603
L51539 37621
L51558 37659
L51558 37715
L51539 37753
L51521 37771
L51483 37790
L51333 37790
" />
<path d="M51896 37715
L51896 37978
" />
<path d="M51802 37565
L51708 37846
L51952 37846
" />
<text x="53924.2" y="34896.9"
textLength="845.426" font-size="524.934" lengthAdjust="spacingAndGlyphs"
text-anchor="middle" opacity="0">R5</text>
<path d="M53858 34878
L53727 34690
" />
<path d="M53633 34878
L53633 34484
L53783 34484
L53821 34503
L53839 34521
L53858 34559
L53858 34615
L53839 34653
L53821 34671
L53783 34690
L53633 34690
" />
<path d="M54214 34484
L54027 34484
L54008 34671
L54027 34653
L54064 34634
L54158 34634
L54196 34653
L54214 34671
L54233 34709
L54233 34803
L54214 34840
L54196 34859
L54158 34878
L54064 34878
L54027 34859
L54008 34840
" />
<text x="51624.2" y="36996.9"
textLength="845.426" font-size="524.934" lengthAdjust="spacingAndGlyphs"
text-anchor="middle" opacity="0">R6</text>
<path d="M51558 36978
L51427 36790
" />
<path d="M51333 36978
L51333 36584
L51483 36584
L51521 36603
L51539 36621
L51558 36659
L51558 36715
L51539 36753
L51521 36771
L51483 36790
L51333 36790
" />
<path d="M51896 36584
L51821 36584
L51783 36603
L51764 36621
L51727 36678
L51708 36753
L51708 36903
L51727 36940
L51746 36959
L51783 36978
L51858 36978
L51896 36959
L51914 36940
L51933 36903
L51933 36809
L51914 36771
L51896 36753
L51858 36734
L51783 36734
L51746 36753
L51727 36771
L51708 36809
" />
<text x="51624.2" y="35996.9"
textLength="845.426" font-size="524.934" lengthAdjust="spacingAndGlyphs"
text-anchor="middle" opacity="0">R7</text>
<path d="M51558 35978
L51427 35790
" />
<path d="M51333 35978
L51333 35584
L51483 35584
L51521 35603
L51539 35621
L51558 35659
L51558 35715
L51539 35753
L51521 35771
L51483 35790
L51333 35790
" />
<path d="M51689 35584
L51952 35584
L51783 35978
" />
<text x="57224.2" y="40596.9"
textLength="845.426" font-size="524.934" lengthAdjust="spacingAndGlyphs"
text-anchor="middle" opacity="0">R8</text>
<path d="M57158 40578
L57027 40390
" />
<path d="M56933 40578
L56933 40184
L57083 40184
L57121 40203
L57139 40221
L57158 40259
L57158 40315
L57139 40353
L57121 40371
L57083 40390
L56933 40390
" />
<path d="M57383 40353
L57346 40334
L57327 40315
L57308 40278
L57308 40259
L57327 40221
L57346 40203
L57383 40184
L57458 40184
L57496 40203
L57514 40221
L57533 40259
L57533 40278
L57514 40315
L57496 40334
L57458 40353
L57383 40353
L57346 40371
L57327 40390
L57308 40428
L57308 40503
L57327 40540
L57346 40559
L57383 40578
L57458 40578
L57496 40559
L57514 40540
L57533 40503
L57533 40428
L57514 40390
L57496 40371
L57458 40353
" />
<text x="51624.2" y="33996.9"
textLength="845.426" font-size="524.934" lengthAdjust="spacingAndGlyphs"
text-anchor="middle" opacity="0">R9</text>
<path d="M51558 33978
L51427 33790
" />
<path d="M51333 33978
L51333 33584
L51483 33584
L51521 33603
L51539 33621
L51558 33659
L51558 33715
L51539 33753
L51521 33771
L51483 33790
L51333 33790
" />
<path d="M51746 33978
L51821 33978
L51858 33959
L51877 33940
L51914 33884
L51933 33809
L51933 33659
L51914 33621
L51896 33603
L51858 33584
L51783 33584
L51746 33603
L51727 33621
L51708 33659
L51708 33753
L51727 33790
L51746 33809
L51783 33828
L51858 33828
L51896 33809
L51914 33790
L51933 33753
" />
<text x="42624.2" y="33780.3"
textLength="1220.38" font-size="524.934" lengthAdjust="spacingAndGlyphs"
text-anchor="middle" opacity="0">R10</text>
<path d="M42371 33761
L42239 33574
" />
<path d="M42146 33761
L42146 33367
L42296 33367
L42333 33386
L42352 33405
L42371 33442
L42371 33499
L42352 33536
L42333 33555
L42296 33574
L42146 33574
" />
<path d="M42746 33761
L42521 33761
" />
<path d="M42633 33761
L42633 33367
L42596 33424
L42558 33461
L42521 33480
" />
<path d="M42989 33367
L43027 33367
L43064 33386
L43083 33405
L43102 33442
L43121 33517
L43121 33611
L43102 33686
L43083 33724
L43064 33742
L43027 33761
L42989 33761
L42952 33742
L42933 33724
L42914 33686
L42896 33611
L42896 33517
L42914 33442
L42933 33405
L42952 33386
L42989 33367
" />
<text x="56724.2" y="33896.9"
textLength="1220.38" font-size="524.934" lengthAdjust="spacingAndGlyphs"
text-anchor="middle" opacity="0">R11</text>
<path d="M56471 33878
L56339 33690
" />
<path d="M56246 33878
L56246 33484
L56396 33484
L56433 33503
L56452 33521
L56471 33559
L56471 33615
L56452 33653
L56433 33671
L56396 33690
L56246 33690
" />
<path d="M56846 33878
L56621 33878
" />
<path d="M56733 33878
L56733 33484
L56696 33540
L56658 33578
L56621 33596
" />
<path d="M57221 33878
L56996 33878
" />
<path d="M57108 33878
L57108 33484
L57071 33540
L57033 33578
L56996 33596
" />
<text x="52700" y="39596.9"
textLength="1182.88" font-size="524.934" lengthAdjust="spacingAndGlyphs"
text-anchor="middle" opacity="0">RV1</text>
<path d="M52465 39578
L52334 39390
" />
<path d="M52240 39578
L52240 39184
L52390 39184
L52428 39203
L52446 39221
L52465 39259
L52465 39315
L52446 39353
L52428 39371
L52390 39390
L52240 39390
" />
<path d="M52578 39184
L52709 39578
L52840 39184
" />
<path d="M53178 39578
L52953 39578
" />
<path d="M53065 39578
L53065 39184
L53028 39240
L52990 39278
L52953 39296
" />
</g>
<g style="fill:#008484; fill-opacity:0.0; 
stroke:#008484; stroke-width:100; stroke-opacity:1; 
stroke-linecap:round; stroke-linejoin:round;">
<g transform="rotate(-90 46900 36930.7)">
<text x="46900" y="37180.7"
textLength="933.915" font-size="666.667" lengthAdjust="spacingAndGlyphs"
text-anchor="middle" opacity="0">T1</text>
</g>
<path d="M46626 37311
L46626 37025
" />
<path d="M47126 37168
L46626 37168
" />
<path d="M47126 36597
L47126 36883
" />
<path d="M47126 36740
L46626 36740
L46697 36787
L46745 36835
L46769 36883
" />
</g>
<g style="fill:#008484; fill-opacity:0.0; 
stroke:#008484; stroke-width:59.0551; stroke-opacity:1; 
stroke-linecap:round; stroke-linejoin:round;">
<text x="54600" y="37796.9"
textLength="917.402" font-size="524.934" lengthAdjust="spacingAndGlyphs"
text-anchor="middle" opacity="0">U1</text>
<path d="M54300 37384
L54300 37703
L54318 37740
L54337 37759
L54375 37778
L54450 37778
L54487 37759
L54506 37740
L54525 37703
L54525 37384
" />
<path d="M54918 37778
L54693 37778
" />
<path d="M54806 37778
L54806 37384
L54768 37440
L54731 37478
L54693 37496
" />
<g >
</g>
</g>
<g style="fill:#000000; fill-opacity:0.0; 
stroke:#000000; stroke-width:59.0551; stroke-opacity:1; 
stroke-linecap:round; stroke-linejoin:round;">
</g>
<g style="fill:#C2C200; fill-opacity:0.0; 
stroke:#C2C200; stroke-width:59.0551; stroke-opacity:1; 
stroke-linecap:round; stroke-linejoin:round;">
</g>
<g style="fill:#C2C200; fill-opacity:0.0; 
stroke:#C2C200; stroke-width:19.685; stroke-opacity:1; 
stroke-linecap:round; stroke-linejoin:round;">
<path d="M40500 33100
L40500 41100
" />
<path d="M60500 33100
L40500 33100
" />
<path d="M60500 41100
L60500 33100
" />
<path d="M40500 41100
L60500 41100
" />
<g >
</g>
<g >
</g>
<g >
</g>
<g >
</g>
<g >
</g>
<g >
</g>
<g >
</g>
<g >
</g>
<g >
</g>
<g >
</g>
<g >
</g>
<g >
</g>
<g >
</g>
<g >
</g>
<g >
</g>
<g >
</g>
<g >
</g>
<g >
</g>
<g >
</g>
<g >
</g>
<g >
</g>
<g >
</g>
<g >
</g>
</g> 
</svg>
